<?xml version="1.0" encoding="UTF-8"?>
<!DOCTYPE svg PUBLIC "-//W3C//DTD SVG 1.1//EN" "http://www.w3.org/Graphics/SVG/1.1/DTD/svg11.dtd">
<svg xmlns="http://www.w3.org/2000/svg" version="1.1" width="3264px" height="3264px" style="shape-rendering:geometricPrecision; text-rendering:geometricPrecision; image-rendering:optimizeQuality; fill-rule:evenodd; clip-rule:evenodd" xmlns:xlink="http://www.w3.org/1999/xlink">
<g><path style="opacity:0.008" fill="#d1d1d1" d="M 2582.5,57.5 C 2585.48,57.2411 2587.31,58.5744 2588,61.5C 2588.29,63.8907 2588.79,66.2241 2589.5,68.5C 2589.17,69.5 2588.5,70.1667 2587.5,70.5C 2586.12,69.1581 2584.79,67.8248 2583.5,66.5C 2583.71,65.914 2584.04,65.414 2584.5,65C 2581.86,62.9155 2581.19,60.4155 2582.5,57.5 Z"/></g>
<g><path style="opacity:0.012" fill="#959595" d="M 2634.5,69.5 C 2637.84,70.1935 2638.34,71.8601 2636,74.5C 2632.39,73.3487 2631.89,71.682 2634.5,69.5 Z"/></g>
<g><path style="opacity:0.01" fill="#f5f5f5" d="M 2640.5,73.5 C 2645.24,73.8853 2645.57,75.2186 2641.5,77.5C 2639.36,76.5629 2639.02,75.2296 2640.5,73.5 Z"/></g>
<g><path style="opacity:0.008" fill="#fbfbfb" d="M 2614.5,81.5 C 2616.91,81.6941 2617.91,83.0274 2617.5,85.5C 2614.45,85.3538 2613.45,84.0204 2614.5,81.5 Z"/></g>
<g><path style="opacity:0.016" fill="#e6e6e6" d="M 2616.5,88.5 C 2618.59,88.4501 2619.92,89.4501 2620.5,91.5C 2617.9,94.4876 2615.9,94.1542 2614.5,90.5C 2615.24,89.8182 2615.91,89.1515 2616.5,88.5 Z"/></g>
<g><path style="opacity:0.011" fill="#bdbdbd" d="M 2612.5,94.5 C 2617.15,94.3954 2617.65,95.7287 2614,98.5C 2611.63,97.6828 2611.13,96.3495 2612.5,94.5 Z"/></g>
<g><path style="opacity:0.014" fill="#d9d9d9" d="M 2661.5,99.5 C 2662.5,99.5 2663.5,99.5 2664.5,99.5C 2664.26,102.579 2664.59,105.579 2665.5,108.5C 2663.09,113.949 2661.42,113.782 2660.5,108C 2661.1,105.152 2661.43,102.319 2661.5,99.5 Z"/></g>
<g><path style="opacity:0.012" fill="#a4a4a4" d="M 2627.5,106.5 C 2631.58,107.955 2631.41,109.289 2627,110.5C 2625.07,108.923 2625.24,107.59 2627.5,106.5 Z"/></g>
<g><path style="opacity:0.009" fill="#dcdcdc" d="M 2662.5,120.5 C 2663.83,120.5 2665.17,120.5 2666.5,120.5C 2666.38,122.484 2667.05,124.15 2668.5,125.5C 2667.38,127.596 2665.88,127.93 2664,126.5C 2662.87,124.655 2662.37,122.655 2662.5,120.5 Z"/></g>
<g><path style="opacity:0.011" fill="#e1e1e1" d="M 2666.5,135.5 C 2667.68,135.281 2668.68,135.614 2669.5,136.5C 2670.25,138.332 2671.25,139.999 2672.5,141.5C 2670.76,144.105 2668.93,144.105 2667,141.5C 2665.39,139.544 2665.22,137.544 2666.5,135.5 Z"/></g>
<g><path style="opacity:0.008" fill="#ededed" d="M 2670.5,151.5 C 2671.5,151.5 2672.5,151.5 2673.5,151.5C 2673.5,152.833 2673.5,154.167 2673.5,155.5C 2668.94,155.991 2667.94,154.658 2670.5,151.5 Z"/></g>
<g><path style="opacity:0.011" fill="#e2e2e2" d="M 2677.5,159.5 C 2679.39,160.536 2681.22,160.536 2683,159.5C 2685.38,160.141 2686.88,161.641 2687.5,164C 2685.72,167.086 2683.89,166.919 2682,163.5C 2680.3,164.406 2678.47,164.739 2676.5,164.5C 2676.37,162.708 2676.7,161.042 2677.5,159.5 Z"/></g>
<g><path style="opacity:0.984" fill="#f2f2f2" d="M 2723.5,466.5 C 2722.45,467.078 2722.62,467.744 2724,468.5C 2724.4,468.272 2724.57,467.938 2724.5,467.5C 2727.26,471.495 2728.43,475.828 2728,480.5C 2731.25,485.093 2732.41,490.093 2731.5,495.5C 2732.59,497.62 2734.26,499.12 2736.5,500C 2736.87,504.925 2736.87,509.592 2736.5,514C 2737.79,516.292 2739.46,518.292 2741.5,520C 2742.73,525.387 2742.73,530.554 2741.5,535.5C 2744.73,543.663 2746.39,552.163 2746.5,561C 2746.17,564.667 2745.83,568.333 2745.5,572C 2748.63,575.215 2749.96,578.882 2749.5,583C 2750.17,592 2750.83,601 2751.5,610C 2751.25,627.548 2750.58,645.548 2749.5,664C 2749.96,664.414 2750.29,664.914 2750.5,665.5C 2749.1,669.969 2747.43,674.302 2745.5,678.5C 2745.8,686.248 2745.8,694.081 2745.5,702C 2744.81,704.705 2743.47,707.039 2741.5,709C 2741.49,710.583 2741.83,712.249 2742.5,714C 2741.7,719.126 2740.87,724.292 2740,729.5C 2738.07,731.592 2736.91,734.092 2736.5,737C 2736.57,739.867 2736.57,742.7 2736.5,745.5C 2735.53,748.135 2733.86,750.135 2731.5,751.5C 2731.83,752.167 2732.17,752.833 2732.5,753.5C 2729.71,762.34 2727.37,771.34 2725.5,780.5C 2722.23,780.471 2721.56,781.804 2723.5,784.5C 2723,786.5 2722.5,788.5 2722,790.5C 2719.59,796.295 2716.75,801.962 2713.5,807.5C 2714.23,810.751 2713.07,813.418 2710,815.5C 2709.59,818.232 2708.92,820.899 2708,823.5C 2702.57,832.477 2698.07,841.477 2694.5,850.5C 2692.95,850.821 2692.29,851.821 2692.5,853.5C 2685.21,864.864 2678.37,876.53 2672,888.5C 2667.53,892.658 2664.19,897.658 2662,903.5C 2657.84,907.147 2654.68,911.48 2652.5,916.5C 2650.82,916.285 2649.82,916.952 2649.5,918.5C 2649.65,919.552 2649.48,920.552 2649,921.5C 2645.29,925.389 2642.12,929.722 2639.5,934.5C 2638.5,935.167 2637.5,935.833 2636.5,936.5C 2634.14,939.888 2632.14,943.555 2630.5,947.5C 2627.76,950.841 2624.92,954.174 2622,957.5C 2620.99,959.025 2620.49,960.692 2620.5,962.5C 2619.45,962.351 2618.45,962.517 2617.5,963C 2617.83,963.333 2618.17,963.667 2618.5,964C 2604.89,981.773 2591.89,999.939 2579.5,1018.5C 2578.3,1019.53 2576.97,1020.36 2575.5,1021C 2575.83,1021.33 2576.17,1021.67 2576.5,1022C 2573.94,1024.29 2572.27,1027.12 2571.5,1030.5C 2568.91,1033.13 2566.41,1035.8 2564,1038.5C 2562.4,1042.42 2560.4,1046.09 2558,1049.5C 2552.51,1056.07 2547.18,1062.74 2542,1069.5C 2540.02,1073.79 2537.69,1077.79 2535,1081.5C 2533.99,1082.34 2532.82,1082.67 2531.5,1082.5C 2529.94,1086.58 2528.11,1090.58 2526,1094.5C 2523.47,1096.05 2521.64,1098.22 2520.5,1101C 2519.55,1101.48 2518.55,1101.65 2517.5,1101.5C 2517.63,1103.65 2517.13,1105.65 2516,1107.5C 2514.12,1110.62 2511.78,1113.29 2509,1115.5C 2506.6,1118.91 2504.6,1122.58 2503,1126.5C 2500.32,1129.21 2497.66,1131.88 2495,1134.5C 2493.7,1138.52 2491.86,1142.19 2489.5,1145.5C 2485,1149.33 2481.67,1154 2479.5,1159.5C 2477.96,1162.39 2475.62,1164.06 2472.5,1164.5C 2472.61,1167.06 2471.94,1169.39 2470.5,1171.5C 2468.4,1173.59 2466.57,1175.93 2465,1178.5C 2464.67,1178.17 2464.33,1177.83 2464,1177.5C 2463.61,1181.07 2461.94,1183.74 2459,1185.5C 2457.14,1190.2 2454.3,1194.2 2450.5,1197.5C 2449.31,1199.74 2448.31,1202.07 2447.5,1204.5C 2446.68,1205.39 2445.68,1205.72 2444.5,1205.5C 2444.65,1206.55 2444.48,1207.55 2444,1208.5C 2439.02,1214.45 2434.52,1220.78 2430.5,1227.5C 2429.27,1228.28 2427.94,1228.78 2426.5,1229C 2427.07,1232.68 2425.57,1235.52 2422,1237.5C 2418.65,1242.87 2415.32,1248.2 2412,1253.5C 2407.78,1257.07 2404.78,1261.41 2403,1266.5C 2397.53,1271.53 2393.2,1277.53 2390,1284.5C 2387.1,1287.31 2384.43,1290.31 2382,1293.5C 2381.33,1295.5 2380.67,1297.5 2380,1299.5C 2377,1301.17 2374.67,1303.5 2373,1306.5C 2371.22,1309.94 2369.06,1313.11 2366.5,1316C 2366.83,1316.33 2367.17,1316.67 2367.5,1317C 2363.26,1320.26 2360.09,1324.42 2358,1329.5C 2351.02,1338.48 2344.02,1347.48 2337,1356.5C 2335.03,1360.78 2332.7,1364.78 2330,1368.5C 2328.99,1369.34 2327.82,1369.67 2326.5,1369.5C 2326.66,1370.87 2326.49,1372.21 2326,1373.5C 2319.51,1382.46 2313.01,1391.46 2306.5,1400.5C 2305.68,1401.39 2304.68,1401.72 2303.5,1401.5C 2303.65,1402.55 2303.48,1403.55 2303,1404.5C 2299.92,1409.27 2296.75,1413.94 2293.5,1418.5C 2283.03,1428.8 2273.03,1439.64 2263.5,1451C 2260.55,1453.81 2257.22,1456.15 2253.5,1458C 2247,1465.09 2240,1471.59 2232.5,1477.5C 2228.79,1478.69 2225.79,1480.85 2223.5,1484C 2222.55,1484.62 2221.72,1484.45 2221,1483.5C 2219.27,1486.92 2216.43,1488.59 2212.5,1488.5C 2212.67,1489.82 2212.34,1490.99 2211.5,1492C 2199.4,1499.09 2187.23,1505.59 2175,1511.5C 2172.64,1510.93 2170.81,1511.93 2169.5,1514.5C 2161.25,1517.87 2153.09,1521.53 2145,1525.5C 2143.6,1524.95 2142.27,1524.62 2141,1524.5C 2139.39,1525.39 2137.89,1526.39 2136.5,1527.5C 2134.62,1527.23 2133.29,1527.9 2132.5,1529.5C 2127.46,1530.04 2122.63,1531.37 2118,1533.5C 2115.21,1534.35 2112.21,1534.35 2109,1533.5C 2106.5,1534.11 2104.5,1535.44 2103,1537.5C 2100.27,1538.06 2097.61,1538.73 2095,1539.5C 2092.38,1539.53 2089.71,1539.2 2087,1538.5C 2082.09,1542.57 2076.43,1544.57 2070,1544.5C 2061.16,1543.86 2052.49,1543.53 2044,1543.5C 2033.55,1545.69 2023.39,1547.02 2013.5,1547.5C 2007.12,1545.1 2000.45,1543.77 1993.5,1543.5C 1988.33,1543.94 1983.17,1544.27 1978,1544.5C 1974.21,1543.67 1970.37,1542.84 1966.5,1542C 1965.83,1541.33 1965.17,1540.67 1964.5,1540C 1961.24,1539.79 1958.08,1539.29 1955,1538.5C 1953.33,1538.83 1951.67,1539.17 1950,1539.5C 1945.03,1538.43 1940.53,1536.43 1936.5,1533.5C 1935.83,1533.83 1935.17,1534.17 1934.5,1534.5C 1932.22,1533.79 1929.89,1533.29 1927.5,1533C 1926.83,1532.33 1926.17,1531.67 1925.5,1531C 1920.5,1531.01 1915.5,1530.17 1910.5,1528.5C 1909.89,1524.86 1907.89,1523.86 1904.5,1525.5C 1901.22,1524.53 1898.22,1523.03 1895.5,1521C 1893.5,1520.67 1891.5,1520.33 1889.5,1520C 1887.72,1517.11 1885.39,1515.94 1882.5,1516.5C 1878.94,1515.14 1875.78,1513.14 1873,1510.5C 1870.86,1511.03 1869.03,1510.2 1867.5,1508C 1862.67,1507.85 1859.17,1505.68 1857,1501.5C 1853.48,1502.5 1850.64,1501.33 1848.5,1498C 1847.17,1497.67 1845.83,1497.33 1844.5,1497C 1840.97,1494.85 1837.97,1492.18 1835.5,1489C 1833.83,1488.67 1832.17,1488.33 1830.5,1488C 1827.67,1485.27 1824.34,1483.27 1820.5,1482C 1812.1,1473.76 1802.76,1466.43 1792.5,1460C 1791.66,1458.99 1791.33,1457.82 1791.5,1456.5C 1788.17,1456.5 1786.5,1454.83 1786.5,1451.5C 1785.02,1451.76 1783.69,1451.43 1782.5,1450.5C 1781.5,1448.83 1780.17,1447.5 1778.5,1446.5C 1777.75,1445.26 1777.42,1443.93 1777.5,1442.5C 1773.5,1443.17 1771.83,1441.5 1772.5,1437.5C 1771.45,1437.65 1770.45,1437.48 1769.5,1437C 1758.2,1424.9 1747.7,1412.07 1738,1398.5C 1736.59,1396.35 1735.76,1394.02 1735.5,1391.5C 1734.18,1391.67 1733.01,1391.34 1732,1390.5C 1729.49,1386.81 1727.49,1382.81 1726,1378.5C 1723.21,1376.59 1721.88,1373.92 1722,1370.5C 1721,1369.83 1720,1369.17 1719,1368.5C 1718.75,1366.57 1718.25,1364.73 1717.5,1363C 1717.83,1362.67 1718.17,1362.33 1718.5,1362C 1716.71,1361.22 1715.21,1360.05 1714,1358.5C 1712.02,1353.18 1710.02,1347.84 1708,1342.5C 1704.76,1339.74 1703.6,1336.4 1704.5,1332.5C 1700.7,1329.91 1698.7,1326.24 1698.5,1321.5C 1698.71,1320.91 1699.04,1320.41 1699.5,1320C 1696.13,1315.81 1694.63,1310.98 1695,1305.5C 1690.88,1300.61 1689.38,1295.11 1690.5,1289C 1685.95,1282.58 1684.28,1275.58 1685.5,1268C 1683.9,1264.31 1682.74,1260.47 1682,1256.5C 1681.82,1246.92 1681.32,1237.42 1680.5,1228C 1680.91,1214.46 1680.91,1200.79 1680.5,1187C 1681.17,1184.67 1681.83,1182.33 1682.5,1180C 1681.67,1174.27 1681.34,1168.6 1681.5,1163C 1681.64,1159.37 1682.98,1156.37 1685.5,1154C 1684.66,1151.88 1684.32,1149.55 1684.5,1147C 1685.3,1143.25 1685.8,1139.42 1686,1135.5C 1686.41,1132.51 1687.91,1130.34 1690.5,1129C 1690.17,1127.33 1689.83,1125.67 1689.5,1124C 1690.4,1120.57 1691.06,1117.07 1691.5,1113.5C 1693.12,1113.64 1694.29,1112.97 1695,1111.5C 1695.31,1110.23 1695.81,1109.07 1696.5,1108C 1695.71,1105.57 1695.37,1103.23 1695.5,1101C 1698.42,1098.21 1699.92,1094.71 1700,1090.5C 1700.78,1087.92 1702.28,1085.92 1704.5,1084.5C 1703.6,1080.6 1704.76,1077.26 1708,1074.5C 1708.51,1072.12 1709.18,1069.79 1710,1067.5C 1712.23,1062.91 1714.9,1058.58 1718,1054.5C 1717.5,1051.8 1718.5,1049.46 1721,1047.5C 1721.46,1043.57 1723.29,1040.57 1726.5,1038.5C 1728.62,1033.27 1731.62,1028.61 1735.5,1024.5C 1736.15,1022.88 1736.65,1021.22 1737,1019.5C 1742.28,1011.29 1748.28,1003.62 1755,996.5C 1757.75,991.338 1760.75,986.338 1764,981.5C 1765.01,980.663 1766.18,980.33 1767.5,980.5C 1767.76,977.984 1768.59,975.65 1770,973.5C 1775.15,968.674 1779.15,963.007 1782,956.5C 1784.38,953.076 1787.21,950.076 1790.5,947.5C 1791.82,943.523 1793.66,939.856 1796,936.5C 1797.09,935.707 1798.25,935.04 1799.5,934.5C 1802.97,928.908 1806.47,923.241 1810,917.5C 1811.15,916.257 1812.49,915.257 1814,914.5C 1815.22,910.948 1816.88,907.615 1819,904.5C 1820,903.833 1821,903.167 1822,902.5C 1825.71,897.317 1829.04,891.984 1832,886.5C 1835.4,885.215 1837.23,882.715 1837.5,879C 1839.65,875.877 1842.15,873.044 1845,870.5C 1848.71,865.317 1852.04,859.984 1855,854.5C 1858.22,853.277 1859.89,850.944 1860,847.5C 1862.45,844.23 1865.12,841.23 1868,838.5C 1868.33,837.167 1868.67,835.833 1869,834.5C 1872.29,829.21 1876.29,824.544 1881,820.5C 1882.41,814.254 1885.91,809.754 1891.5,807C 1891.04,806.586 1890.71,806.086 1890.5,805.5C 1892.87,803.461 1894.87,801.128 1896.5,798.5C 1896.29,797.914 1895.96,797.414 1895.5,797C 1900.26,792.965 1903.93,788.132 1906.5,782.5C 1911.63,777.227 1915.79,771.227 1919,764.5C 1921.83,761.896 1924.5,759.23 1927,756.5C 1927.32,753.328 1928.82,750.995 1931.5,749.5C 1934.8,743.704 1938.3,738.038 1942,732.5C 1944.42,729.353 1947.09,726.353 1950,723.5C 1951.21,719.64 1953.21,716.307 1956,713.5C 1957.25,712.789 1958.42,711.956 1959.5,711C 1959.17,710.667 1958.83,710.333 1958.5,710C 1962.2,707.395 1964.53,703.895 1965.5,699.5C 1967.95,697.93 1969.95,695.93 1971.5,693.5C 1975.19,686.611 1979.69,680.277 1985,674.5C 1987.51,669.245 1990.84,664.578 1995,660.5C 2004.56,645.996 2014.39,631.663 2024.5,617.5C 2025.48,617.023 2026.31,616.357 2027,615.5C 2027.33,615.833 2027.67,616.167 2028,616.5C 2030.69,608.754 2035.02,602.088 2041,596.5C 2042.67,593.167 2044.33,589.833 2046,586.5C 2047.15,585.257 2048.49,584.257 2050,583.5C 2052.95,580.166 2055.45,576.5 2057.5,572.5C 2058.5,572.5 2059.5,572.5 2060.5,572.5C 2060.5,571.167 2060.5,569.833 2060.5,568.5C 2061.74,566.422 2063.41,564.588 2065.5,563C 2065.17,562.667 2064.83,562.333 2064.5,562C 2067.9,555.932 2072.07,550.432 2077,545.5C 2077.86,543.913 2078.53,542.246 2079,540.5C 2081.22,537.403 2083.89,534.737 2087,532.5C 2088.26,528.921 2089.93,525.588 2092,522.5C 2093.41,521.213 2094.91,520.046 2096.5,519C 2096.17,518.667 2095.83,518.333 2095.5,518C 2099.09,515.331 2101.59,511.831 2103,507.5C 2104.67,504.5 2107,502.167 2110,500.5C 2112.43,493.076 2116.77,487.076 2123,482.5C 2124.22,478.385 2126.22,474.718 2129,471.5C 2130.01,470.663 2131.18,470.33 2132.5,470.5C 2132.39,466.714 2133.89,463.714 2137,461.5C 2138.01,459.975 2138.51,458.308 2138.5,456.5C 2139.68,456.719 2140.68,456.386 2141.5,455.5C 2145.1,451.3 2147.93,446.633 2150,441.5C 2154.48,437.327 2157.98,432.327 2160.5,426.5C 2163.17,423.833 2165.83,421.167 2168.5,418.5C 2169.17,416.5 2169.83,414.5 2170.5,412.5C 2177.18,403.659 2184.01,394.992 2191,386.5C 2191.61,382.927 2193.45,380.26 2196.5,378.5C 2198.8,375.006 2200.97,371.339 2203,367.5C 2206.26,363.4 2209.76,359.4 2213.5,355.5C 2214.35,352.059 2216.18,349.392 2219,347.5C 2221.83,343.858 2224.16,339.858 2226,335.5C 2232.79,326.991 2239.45,318.324 2246,309.5C 2249.3,303.587 2252.97,297.921 2257,292.5C 2257.67,291.167 2258.33,291.167 2259,292.5C 2259.73,290.129 2260.57,287.795 2261.5,285.5C 2265.19,280.815 2268.86,276.148 2272.5,271.5C 2274.05,271.179 2274.71,270.179 2274.5,268.5C 2282.43,257.713 2290.26,246.713 2298,235.5C 2304.7,228.761 2311.2,221.927 2317.5,215C 2320.95,212.607 2324.62,210.774 2328.5,209.5C 2328.28,208.325 2328.61,207.325 2329.5,206.5C 2337.43,201.379 2345.43,196.546 2353.5,192C 2355.22,191.654 2356.88,191.154 2358.5,190.5C 2359.09,190.709 2359.59,191.043 2360,191.5C 2362.52,187.628 2366.02,186.294 2370.5,187.5C 2371.98,186.52 2373.31,185.353 2374.5,184C 2382.49,183.296 2389.99,181.129 2397,177.5C 2412.29,177.517 2427.95,177.517 2444,177.5C 2449.11,177.997 2453.94,179.497 2458.5,182C 2461.83,182.333 2465.17,182.667 2468.5,183C 2470.72,183.652 2471.89,185.152 2472,187.5C 2473.58,187.507 2475.25,187.174 2477,186.5C 2480.52,186.793 2483.35,188.293 2485.5,191C 2487.89,191.287 2490.22,191.787 2492.5,192.5C 2493.39,193.325 2493.72,194.325 2493.5,195.5C 2497.59,195.51 2500.93,197.01 2503.5,200C 2508.24,201.446 2512.58,203.613 2516.5,206.5C 2517.25,207.736 2517.58,209.07 2517.5,210.5C 2521.6,210.884 2525.27,212.384 2528.5,215C 2531.5,218 2534.5,221 2537.5,224C 2543.1,226.138 2548.1,229.304 2552.5,233.5C 2553.39,234.325 2553.72,235.325 2553.5,236.5C 2556.02,236.755 2558.35,237.589 2560.5,239C 2561.88,241.308 2563.88,242.808 2566.5,243.5C 2567.39,244.325 2567.72,245.325 2567.5,246.5C 2570.47,246.626 2572.47,248.126 2573.5,251C 2587.08,259.819 2598.91,270.319 2609,282.5C 2614.8,286.299 2619.63,291.132 2623.5,297C 2624.45,297.483 2625.45,297.649 2626.5,297.5C 2626.35,298.552 2626.52,299.552 2627,300.5C 2629.23,303.64 2631.89,306.306 2635,308.5C 2635.33,309.5 2635.67,310.5 2636,311.5C 2645.24,322.302 2654.24,333.302 2663,344.5C 2673.87,361.638 2684.54,378.971 2695,396.5C 2695.33,398.167 2695.67,399.833 2696,401.5C 2698.59,405.56 2701.26,409.56 2704,413.5C 2705.73,419.289 2707.73,424.956 2710,430.5C 2713.19,433.844 2714.36,437.677 2713.5,442C 2714.93,442.465 2716.1,443.299 2717,444.5C 2718.2,450.436 2720.36,455.936 2723.5,461C 2722.86,462.707 2722.86,464.54 2723.5,466.5 Z M 1959.5,1123.5 C 1960.5,1123.17 1961.17,1122.5 1961.5,1121.5C 1963.81,1116.88 1966.65,1112.55 1970,1108.5C 1970.49,1107.21 1970.66,1105.87 1970.5,1104.5C 1971.83,1104.5 1973.17,1104.5 1974.5,1104.5C 1975.99,1100.32 1977.99,1096.32 1980.5,1092.5C 1981.33,1091.59 1982.33,1090.92 1983.5,1090.5C 1989.64,1080.24 1996.31,1070.24 2003.5,1060.5C 2007.93,1056.7 2011.1,1052.03 2013,1046.5C 2015.33,1044.17 2017.67,1041.83 2020,1039.5C 2020.33,1038.17 2020.67,1036.83 2021,1035.5C 2026.66,1029.86 2031.49,1023.69 2035.5,1017C 2035.17,1016.67 2034.83,1016.33 2034.5,1016C 2037.17,1013.63 2039.67,1011.13 2042,1008.5C 2046.19,1001.45 2050.85,994.779 2056,988.5C 2057.95,983.697 2060.95,979.697 2065,976.5C 2068.41,968.775 2073.08,962.108 2079,956.5C 2080.25,951.854 2082.92,948.188 2087,945.5C 2089.65,941.661 2092.15,937.661 2094.5,933.5C 2095.76,932.618 2096.93,931.618 2098,930.5C 2100.21,927.413 2101.88,924.079 2103,920.5C 2109.02,914.847 2113.85,908.181 2117.5,900.5C 2121.27,897.105 2124.27,893.105 2126.5,888.5C 2128.69,887.141 2130.36,885.308 2131.5,883C 2131.17,882.667 2130.83,882.333 2130.5,882C 2131.93,881.535 2133.1,880.701 2134,879.5C 2136.43,876.066 2138.43,872.4 2140,868.5C 2144.1,865.891 2146.93,862.224 2148.5,857.5C 2148.29,856.914 2147.96,856.414 2147.5,856C 2149.42,855.64 2151.09,854.806 2152.5,853.5C 2153.71,852.726 2153.71,851.893 2152.5,851C 2154.08,850.293 2155.58,849.46 2157,848.5C 2159.04,844.956 2160.87,841.289 2162.5,837.5C 2163.69,836.571 2165.02,836.238 2166.5,836.5C 2166.09,833.401 2167.26,831.067 2170,829.5C 2170.33,828.167 2170.67,826.833 2171,825.5C 2178.43,817.608 2184.6,808.941 2189.5,799.5C 2191.5,799.5 2192.5,798.5 2192.5,796.5C 2194.56,793.067 2196.73,789.734 2199,786.5C 2200.51,785.743 2201.85,784.743 2203,783.5C 2205.3,780.113 2207.14,776.446 2208.5,772.5C 2209.75,771.96 2210.91,771.293 2212,770.5C 2218.01,760.462 2224.51,750.796 2231.5,741.5C 2232.5,740.833 2233.5,740.167 2234.5,739.5C 2235.64,738.575 2235.64,737.741 2234.5,737C 2237.66,735.078 2239.66,732.245 2240.5,728.5C 2241.32,727.614 2242.32,727.281 2243.5,727.5C 2243.49,724.175 2244.99,721.841 2248,720.5C 2250.49,717.558 2252.32,714.224 2253.5,710.5C 2256.17,707.5 2258.83,704.5 2261.5,701.5C 2263.02,699.714 2263.35,697.881 2262.5,696C 2263.5,695.667 2264.5,695.333 2265.5,695C 2266.52,692.103 2268.36,689.936 2271,688.5C 2274.08,681.553 2278.42,675.553 2284,670.5C 2289.44,662.738 2294.44,654.738 2299,646.5C 2308.23,636.291 2316.23,625.291 2323,613.5C 2326.91,610.266 2329.58,606.266 2331,601.5C 2335.1,598.272 2337.93,594.272 2339.5,589.5C 2340.68,589.719 2341.68,589.386 2342.5,588.5C 2343.37,586.587 2344.37,584.753 2345.5,583C 2345.04,582.586 2344.71,582.086 2344.5,581.5C 2349.69,579.135 2352.86,575.135 2354,569.5C 2355.15,568.257 2356.49,567.257 2358,566.5C 2360.27,561.704 2363.27,557.37 2367,553.5C 2367.49,552.207 2367.66,550.873 2367.5,549.5C 2368.82,549.67 2369.99,549.337 2371,548.5C 2373.12,545.385 2374.78,542.052 2376,538.5C 2380.66,533.433 2385.16,528.267 2389.5,523C 2389.17,522.667 2388.83,522.333 2388.5,522C 2393.47,517.208 2397.3,511.708 2400,505.5C 2405.79,500.187 2410.29,493.854 2413.5,486.5C 2414.32,485.614 2415.32,485.281 2416.5,485.5C 2416.23,483.62 2416.9,482.287 2418.5,481.5C 2419.5,481.167 2420.17,480.5 2420.5,479.5C 2420.89,477.821 2421.39,476.154 2422,474.5C 2428.41,468.802 2433.24,461.969 2436.5,454C 2440.49,452.666 2443.15,453.999 2444.5,458C 2445.45,458.483 2446.45,458.649 2447.5,458.5C 2449.31,460.881 2450.81,463.548 2452,466.5C 2453.36,467.38 2454.86,467.714 2456.5,467.5C 2456.37,469.655 2456.87,471.655 2458,473.5C 2471.25,489.083 2481.58,506.416 2489,525.5C 2490.01,526.337 2491.18,526.67 2492.5,526.5C 2491.6,532.265 2493.26,537.431 2497.5,542C 2496.83,543.751 2496.49,545.417 2496.5,547C 2501.13,551.264 2502.79,556.431 2501.5,562.5C 2502.17,564.517 2503.34,566.183 2505,567.5C 2505.97,573.644 2506.63,579.644 2507,585.5C 2507.54,587.869 2508.7,589.869 2510.5,591.5C 2510.16,612.604 2510.16,633.771 2510.5,655C 2506.79,663.057 2504.79,671.557 2504.5,680.5C 2501.87,684.364 2501.2,688.197 2502.5,692C 2500.56,695.326 2498.56,698.659 2496.5,702C 2496.83,702.333 2497.17,702.667 2497.5,703C 2495.7,707.431 2494.04,711.931 2492.5,716.5C 2492.71,717.086 2493.04,717.586 2493.5,718C 2492.33,719.833 2490.83,721.333 2489,722.5C 2485.4,729.806 2481.9,737.139 2478.5,744.5C 2471.48,754.022 2464.65,763.689 2458,773.5C 2456.87,775.345 2456.37,777.345 2456.5,779.5C 2452.96,779.239 2451.12,780.905 2451,784.5C 2450,785.167 2449,785.833 2448,786.5C 2446.4,790.42 2444.4,794.086 2442,797.5C 2438.92,799.08 2436.75,801.414 2435.5,804.5C 2434.37,806.707 2433.7,809.04 2433.5,811.5C 2432.18,811.33 2431.01,811.663 2430,812.5C 2426.67,817.167 2423.33,821.833 2420,826.5C 2419.51,827.793 2419.34,829.127 2419.5,830.5C 2418.32,830.281 2417.32,830.614 2416.5,831.5C 2409.73,840.977 2403.23,850.644 2397,860.5C 2394.28,862.934 2391.78,865.601 2389.5,868.5C 2387.51,872.64 2385.34,876.64 2383,880.5C 2379.54,883.415 2376.54,886.748 2374,890.5C 2372.4,892.992 2371.06,895.659 2370,898.5C 2369,899.167 2368,899.833 2367,900.5C 2364.41,905.747 2361.08,910.414 2357,914.5C 2354.03,922.107 2349.37,928.44 2343,933.5C 2342.2,937.759 2340.37,941.425 2337.5,944.5C 2333.53,949.142 2329.53,953.808 2325.5,958.5C 2322.91,962.233 2320.74,966.233 2319,970.5C 2316.45,972.597 2314.11,974.93 2312,977.5C 2308.86,982.961 2305.36,988.128 2301.5,993C 2301.83,993.333 2302.17,993.667 2302.5,994C 2297.81,995.308 2295.64,998.141 2296,1002.5C 2291.87,1006.13 2288.7,1010.46 2286.5,1015.5C 2279.46,1023.38 2272.96,1031.71 2267,1040.5C 2265.72,1042.72 2264.72,1045.05 2264,1047.5C 2261.67,1049.83 2259.33,1052.17 2257,1054.5C 2256.07,1057.36 2254.4,1059.69 2252,1061.5C 2251.67,1062.83 2251.33,1064.17 2251,1065.5C 2248.27,1067.98 2245.77,1070.64 2243.5,1073.5C 2242.81,1075.44 2242.31,1077.44 2242,1079.5C 2236.47,1084.1 2231.63,1089.93 2227.5,1097C 2227.83,1097.33 2228.17,1097.67 2228.5,1098C 2224.95,1098.71 2222.95,1100.88 2222.5,1104.5C 2221.35,1105.14 2220.35,1105.98 2219.5,1107C 2220.42,1107.85 2220.42,1108.85 2219.5,1110C 2218.39,1111.39 2217.05,1112.56 2215.5,1113.5C 2214.75,1114.74 2214.42,1116.07 2214.5,1117.5C 2210.28,1119.88 2207.44,1123.54 2206,1128.5C 2204.85,1129.74 2203.51,1130.74 2202,1131.5C 2198.78,1139.07 2194.12,1145.74 2188,1151.5C 2185.93,1154.59 2184.26,1157.92 2183,1161.5C 2176.41,1166.42 2171.74,1172.76 2169,1180.5C 2168.33,1181.83 2167.67,1181.83 2167,1180.5C 2161.02,1190.13 2154.69,1199.46 2148,1208.5C 2146.99,1210.02 2146.49,1211.69 2146.5,1213.5C 2145.18,1213.33 2144.01,1213.66 2143,1214.5C 2132.99,1229.29 2122.99,1243.95 2113,1258.5C 2111.3,1259.36 2110.14,1260.7 2109.5,1262.5C 2108.68,1263.39 2107.68,1263.72 2106.5,1263.5C 2106.4,1266.36 2105.24,1268.69 2103,1270.5C 2096.25,1276.91 2089.42,1283.08 2082.5,1289C 2071.89,1294.61 2061.06,1299.77 2050,1304.5C 2045.97,1303.77 2041.97,1303.43 2038,1303.5C 2033.65,1306.96 2028.65,1308.29 2023,1307.5C 2019.83,1307.33 2016.67,1307.17 2013.5,1307C 2011.43,1305.02 2008.93,1303.85 2006,1303.5C 2001.77,1304.37 1997.27,1304.37 1992.5,1303.5C 1992.72,1302.32 1992.39,1301.32 1991.5,1300.5C 1988.31,1299.13 1984.97,1298.3 1981.5,1298C 1979.38,1295.52 1976.88,1294.68 1974,1295.5C 1968.9,1291.69 1964.06,1287.52 1959.5,1283C 1957.48,1282.55 1955.65,1281.72 1954,1280.5C 1953.67,1280.83 1953.33,1281.17 1953,1281.5C 1952.39,1278.39 1950.56,1276.39 1947.5,1275.5C 1946.17,1273.5 1944.83,1271.5 1943.5,1269.5C 1940.46,1267.13 1937.63,1264.46 1935,1261.5C 1932.24,1254.54 1928.74,1248.04 1924.5,1242C 1925.87,1239.76 1925.37,1237.93 1923,1236.5C 1922.07,1232.99 1921.24,1229.49 1920.5,1226C 1920.65,1222.11 1920.65,1218.27 1920.5,1214.5C 1919.15,1212.55 1918.48,1210.38 1918.5,1208C 1920.35,1199.37 1921.52,1190.87 1922,1182.5C 1923.16,1182 1923.99,1181.17 1924.5,1180C 1924.3,1174.56 1926.13,1170.06 1930,1166.5C 1931.77,1161.95 1934.27,1157.95 1937.5,1154.5C 1941.5,1149.16 1945,1143.5 1948,1137.5C 1951.42,1135.93 1953.42,1133.27 1954,1129.5C 1956.07,1127.6 1957.9,1125.6 1959.5,1123.5 Z"/></g>
<g><path style="opacity:0.173" fill="#eaeaea" d="M 2666.5,181.5 C 2674.29,184.901 2681.29,189.568 2687.5,195.5C 2688.87,200.001 2688.04,204.001 2685,207.5C 2681.2,206.256 2679.03,203.589 2678.5,199.5C 2676.18,196.355 2673.51,193.521 2670.5,191C 2670.96,190.586 2671.29,190.086 2671.5,189.5C 2668.16,187.837 2666.49,185.17 2666.5,181.5 Z"/></g>
<g><path style="opacity:0.011" fill="#cccccc" d="M 2812.5,250.5 C 2814.51,251.254 2815.17,252.421 2814.5,254C 2810.18,254.696 2809.52,253.53 2812.5,250.5 Z"/></g>
<g><path style="opacity:0.019" fill="#f1f1f1" d="M 2834.5,251.5 C 2839.51,253.163 2839.67,255.163 2835,257.5C 2830.61,255.84 2830.44,253.84 2834.5,251.5 Z"/></g>
<g><path style="opacity:0.011" fill="#e8e8e8" d="M 2789.5,259.5 C 2791.6,259.477 2793.43,260.144 2795,261.5C 2795.77,261.355 2796.44,261.022 2797,260.5C 2798.27,261.905 2798.77,263.571 2798.5,265.5C 2795.26,265.587 2792.26,264.92 2789.5,263.5C 2789.5,262.167 2789.5,260.833 2789.5,259.5 Z"/></g>
<g><path style="opacity:0.012" fill="#484848" d="M 2274.5,268.5 C 2274.71,270.179 2274.05,271.179 2272.5,271.5C 2272.93,270.29 2273.6,269.29 2274.5,268.5 Z"/></g>
<g><path style="opacity:0.012" fill="#dadada" d="M 2793.5,274.5 C 2794.94,275.363 2796.27,275.363 2797.5,274.5C 2798.45,276.045 2798.79,277.712 2798.5,279.5C 2794.5,280.167 2792.83,278.5 2793.5,274.5 Z"/></g>
<g><path style="opacity:0.005" fill="#cdcdcd" d="M 2800.5,276.5 C 2803.49,276.948 2804.49,278.448 2803.5,281C 2802.55,281.617 2801.72,281.451 2801,280.5C 2800.51,279.207 2800.34,277.873 2800.5,276.5 Z"/></g>
<g><path style="opacity:0.014" fill="#eaeaea" d="M 2887.5,454.5 C 2893.07,455.927 2896.07,459.594 2896.5,465.5C 2894.28,465.822 2892.44,465.155 2891,463.5C 2888.71,460.928 2887.55,457.928 2887.5,454.5 Z"/></g>
<g><path style="opacity:0.007" fill="#000000" d="M 2723.5,466.5 C 2724.17,466.5 2724.5,466.833 2724.5,467.5C 2724.57,467.938 2724.4,468.272 2724,468.5C 2722.62,467.744 2722.45,467.078 2723.5,466.5 Z"/></g>
<g><path style="opacity:0.05" fill="#dedede" d="M 2973.5,471.5 C 2977.36,475.366 2980.36,479.866 2982.5,485C 2980.59,488.133 2978.42,488.3 2976,485.5C 2975.85,482.89 2975.02,480.556 2973.5,478.5C 2973.71,477.914 2974.04,477.414 2974.5,477C 2972.37,475.444 2972.03,473.611 2973.5,471.5 Z"/></g>
<g><path style="opacity:0.011" fill="#e3e3e3" d="M 2904.5,477.5 C 2905.83,477.5 2907.17,477.5 2908.5,477.5C 2908.78,479.346 2908.11,480.68 2906.5,481.5C 2904.89,480.68 2904.22,479.346 2904.5,477.5 Z"/></g>
<g><path style="opacity:0.008" fill="#5a5a5a" d="M 2420.5,479.5 C 2420.17,480.5 2419.5,481.167 2418.5,481.5C 2417.5,479.167 2418.17,478.5 2420.5,479.5 Z"/></g>
<g><path style="opacity:0.01" fill="#d3d3d3" d="M 2992.5,497.5 C 2995.12,498.403 2995.79,500.069 2994.5,502.5C 2991.38,501.731 2990.71,500.064 2992.5,497.5 Z"/></g>
<g><path style="opacity:0.004" fill="#9d9d9d" d="M 2926.5,511.5 C 2925.02,511.762 2923.69,511.429 2922.5,510.5C 2924.24,509.191 2925.57,509.524 2926.5,511.5 Z"/></g>
<g><path style="opacity:0.024" fill="#aaaaaa" d="M 2996.5,512.5 C 2997.83,512.5 2999.17,512.5 3000.5,512.5C 3000.5,513.833 3000.5,515.167 3000.5,516.5C 2997.5,516.833 2996.17,515.5 2996.5,512.5 Z"/></g>
<g><path style="opacity:0.147" fill="#eaeaea" d="M 2926.5,511.5 C 2929.14,511.142 2931.81,510.809 2934.5,510.5C 2940.07,511.775 2945.41,513.609 2950.5,516C 2955.7,521.867 2961.2,527.367 2967,532.5C 2968.67,534.853 2970,537.186 2971,539.5C 2969.27,540.576 2967.44,540.743 2965.5,540C 2962.41,537.07 2958.74,535.07 2954.5,534C 2951.69,532.356 2949.36,530.19 2947.5,527.5C 2945.88,526.846 2944.22,526.346 2942.5,526C 2939.73,523.108 2936.73,520.442 2933.5,518C 2930.08,517.594 2927.42,515.928 2925.5,513C 2926.06,512.617 2926.39,512.117 2926.5,511.5 Z"/></g>
<g><path style="opacity:0.031" fill="#7d7d7d" d="M 2060.5,568.5 C 2060.5,569.833 2060.5,571.167 2060.5,572.5C 2059.5,572.5 2058.5,572.5 2057.5,572.5C 2058.12,570.878 2059.12,569.545 2060.5,568.5 Z"/></g>
<g><path style="opacity:0.012" fill="#838383" d="M 2192.5,796.5 C 2192.5,798.5 2191.5,799.5 2189.5,799.5C 2189.69,797.804 2190.52,796.471 2192,795.5C 2192.4,795.728 2192.57,796.062 2192.5,796.5 Z"/></g>
<g><path style="opacity:0.012" fill="#4b4b4b" d="M 2694.5,850.5 C 2694.07,851.71 2693.4,852.71 2692.5,853.5C 2692.29,851.821 2692.95,850.821 2694.5,850.5 Z"/></g>
<g><path style="opacity:0.008" fill="#535353" d="M 2652.5,916.5 C 2651.71,917.401 2650.71,918.068 2649.5,918.5C 2649.82,916.952 2650.82,916.285 2652.5,916.5 Z"/></g>
<g><path style="opacity:0.004" fill="#191919" d="M 1961.5,1121.5 C 1961.17,1122.5 1960.5,1123.17 1959.5,1123.5C 1959.5,1122.17 1960.17,1121.5 1961.5,1121.5 Z"/></g>
<g><path style="opacity:0.02" fill="#e9e9e9" d="M 131.5,1286.5 C 134.173,1286.68 134.84,1287.85 133.5,1290C 129.447,1290.47 128.78,1289.3 131.5,1286.5 Z"/></g>
<g><path style="opacity:0.004" fill="#000000" d="M 169.5,1291.5 C 170.833,1292.17 170.833,1292.17 169.5,1291.5 Z"/></g>
<g><path style="opacity:0.984" fill="#f2f2f2" d="M 1523.5,1872.5 C 1522.09,1872.97 1521.43,1873.97 1521.5,1875.5C 1499.56,1893.47 1477.23,1910.97 1454.5,1928C 1452.41,1928.79 1450.58,1929.96 1449,1931.5C 1447.27,1930.42 1445.44,1930.26 1443.5,1931C 1437.94,1938.45 1430.61,1942.11 1421.5,1942C 1418.68,1943.39 1416.35,1945.22 1414.5,1947.5C 1413.21,1947.26 1412.21,1947.6 1411.5,1948.5C 1411.44,1949.04 1411.11,1949.38 1410.5,1949.5C 1408.94,1948.93 1407.44,1948.26 1406,1947.5C 1403.46,1951.05 1400.13,1953.38 1396,1954.5C 1395,1954.17 1394,1953.83 1393,1953.5C 1390.5,1954.99 1388,1956.49 1385.5,1958C 1381.36,1956.88 1377.7,1957.88 1374.5,1961C 1365.94,1962.5 1357.77,1964.34 1350,1966.5C 1347.55,1964.15 1345.21,1964.48 1343,1967.5C 1341.47,1968.7 1339.97,1968.7 1338.5,1967.5C 1336.59,1968.37 1334.75,1969.37 1333,1970.5C 1330.26,1967.59 1327.76,1967.42 1325.5,1970C 1319.02,1970.02 1312.69,1970.85 1306.5,1972.5C 1304.2,1971.32 1301.86,1971.32 1299.5,1972.5C 1297.97,1972.47 1296.8,1971.8 1296,1970.5C 1294.25,1971.63 1292.41,1972.63 1290.5,1973.5C 1288.5,1972.17 1286.5,1972.17 1284.5,1973.5C 1282.94,1972.93 1281.44,1972.26 1280,1971.5C 1278.56,1972.26 1277.06,1972.93 1275.5,1973.5C 1264.26,1973.4 1252.76,1973.4 1241,1973.5C 1239.67,1974.17 1238.33,1974.83 1237,1975.5C 1233.26,1974.85 1229.43,1974.85 1225.5,1975.5C 1222.84,1975.31 1220.34,1974.64 1218,1973.5C 1214.56,1976.08 1210.89,1977.42 1207,1977.5C 1203.02,1974.99 1199.02,1974.99 1195,1977.5C 1191.03,1977.48 1187.03,1977.48 1183,1977.5C 1181.24,1977.02 1179.57,1976.36 1178,1975.5C 1177.5,1976 1177,1976.5 1176.5,1977C 1173.44,1977.26 1170.44,1977.76 1167.5,1978.5C 1164.55,1976.23 1161.72,1976.23 1159,1978.5C 1155.05,1978.66 1151.05,1978.33 1147,1977.5C 1144.46,1980.08 1141.96,1980.08 1139.5,1977.5C 1136.79,1979.48 1133.96,1979.81 1131,1978.5C 1127.2,1979.2 1123.37,1979.87 1119.5,1980.5C 1117.83,1979.83 1116.17,1979.17 1114.5,1978.5C 1109.63,1981.14 1104.8,1981.14 1100,1978.5C 1098.65,1980.01 1096.98,1981.01 1095,1981.5C 1092.7,1980.37 1090.36,1980.37 1088,1981.5C 1086.67,1981.25 1085.67,1980.58 1085,1979.5C 1083.69,1980.57 1082.19,1981.24 1080.5,1981.5C 1078.53,1980.56 1076.69,1980.22 1075,1980.5C 1074.26,1981.57 1073.26,1982.24 1072,1982.5C 1070,1981.17 1068,1981.17 1066,1982.5C 1064.13,1981.93 1062.3,1981.27 1060.5,1980.5C 1058.87,1981.9 1057.04,1982.9 1055,1983.5C 1053.2,1982.23 1051.37,1982.23 1049.5,1983.5C 1046.7,1981.27 1044.03,1981.27 1041.5,1983.5C 1038.1,1982.51 1034.77,1982.84 1031.5,1984.5C 1030.52,1984.02 1029.69,1983.36 1029,1982.5C 1027,1983.83 1025,1983.83 1023,1982.5C 1019.83,1984.53 1016.5,1984.87 1013,1983.5C 1008.51,1985.33 1004.17,1985.33 1000,1983.5C 994.606,1985.52 989.106,1985.86 983.5,1984.5C 981.5,1985.17 979.5,1985.83 977.5,1986.5C 971.633,1986.22 965.799,1985.89 960,1985.5C 958.215,1986.24 956.382,1986.91 954.5,1987.5C 952.298,1986.22 950.132,1986.22 948,1987.5C 946.559,1986.74 945.059,1986.07 943.5,1985.5C 940.993,1988.95 938.16,1989.29 935,1986.5C 932.803,1988.73 930.47,1988.73 928,1986.5C 926.057,1988.57 923.891,1988.9 921.5,1987.5C 919.726,1987.89 918.059,1988.55 916.5,1989.5C 914.705,1988.73 912.872,1988.07 911,1987.5C 906.844,1988.2 902.677,1988.87 898.5,1989.5C 891.047,1988.65 883.38,1988.98 875.5,1990.5C 870.534,1990.02 865.534,1990.02 860.5,1990.5C 859.5,1989.17 858.5,1989.17 857.5,1990.5C 854.071,1992.79 851.238,1992.46 849,1989.5C 846.228,1991.68 843.561,1992.01 841,1990.5C 839.687,1991.57 838.187,1992.24 836.5,1992.5C 828.933,1991.04 821.6,1991.37 814.5,1993.5C 812.617,1993.12 811.117,1992.12 810,1990.5C 806.165,1992.15 802.165,1993.48 798,1994.5C 795.267,1992.11 792.6,1992.11 790,1994.5C 781.702,1994.09 773.202,1993.76 764.5,1993.5C 762.5,1994.17 760.5,1994.83 758.5,1995.5C 756.5,1994.82 754.333,1994.82 752,1995.5C 750.188,1995.51 748.688,1994.84 747.5,1993.5C 745.587,1994.37 743.753,1995.37 742,1996.5C 739.58,1995.51 737.247,1995.85 735,1997.5C 734.196,1996.2 733.029,1995.53 731.5,1995.5C 727.247,1994.93 723.08,1995.6 719,1997.5C 716.811,1996.31 714.644,1996.31 712.5,1997.5C 710.896,1997.06 709.396,1996.39 708,1995.5C 702.847,1998.12 697.68,1998.45 692.5,1996.5C 688.677,1997.22 684.843,1998.22 681,1999.5C 679.39,1999.87 677.89,1999.2 676.5,1997.5C 674.298,1998.78 672.132,1998.78 670,1997.5C 668.426,1998.85 666.593,1999.51 664.5,1999.5C 658.614,1999.69 652.614,1999.36 646.5,1998.5C 641.46,2000.65 636.293,2000.99 631,1999.5C 628.923,2000.02 626.923,2000.68 625,2001.5C 624,2000.83 623,2000.17 622,1999.5C 621.044,2000.89 619.711,2001.56 618,2001.5C 614.256,2001.55 610.423,2001.22 606.5,2000.5C 605.312,2001.84 603.812,2002.51 602,2002.5C 599.592,2001.46 597.259,2001.46 595,2002.5C 594.311,2001.64 593.478,2000.98 592.5,2000.5C 584.68,2003.34 576.846,2003.67 569,2001.5C 567.139,2002.76 565.139,2003.76 563,2004.5C 551.935,2004.41 540.768,2004.07 529.5,2003.5C 527.689,2004.74 525.689,2005.41 523.5,2005.5C 517.112,2004.45 510.779,2004.45 504.5,2005.5C 503.828,2004.73 502.995,2004.07 502,2003.5C 500.591,2004.78 499.091,2005.78 497.5,2006.5C 494.635,2006.95 492.135,2006.28 490,2004.5C 488.333,2005.5 486.667,2006.5 485,2007.5C 478.694,2006.82 472.027,2006.49 465,2006.5C 463.915,2007.29 462.748,2007.96 461.5,2008.5C 458.077,2007.77 454.744,2007.44 451.5,2007.5C 449.813,2007.76 448.313,2008.43 447,2009.5C 445.189,2009.32 443.189,2008.65 441,2007.5C 438.566,2008.32 436.066,2008.66 433.5,2008.5C 431.309,2007.71 429.309,2007.71 427.5,2008.5C 425.731,2008.25 423.897,2008.92 422,2010.5C 418.902,2009.7 415.735,2009.03 412.5,2008.5C 407.951,2009.85 403.451,2010.85 399,2011.5C 397,2008.83 395,2008.83 393,2011.5C 386.408,2011.7 379.575,2011.36 372.5,2010.5C 370.813,2010.76 369.313,2011.43 368,2012.5C 365.56,2011.34 363.06,2011.34 360.5,2012.5C 359.328,2012.08 358.328,2011.41 357.5,2010.5C 356.5,2011.17 355.5,2011.83 354.5,2012.5C 352.342,2012 350.009,2012 347.5,2012.5C 344.747,2012.65 342.247,2011.98 340,2010.5C 338.915,2011.29 337.748,2011.96 336.5,2012.5C 332.403,2010.78 328.236,2010.44 324,2011.5C 310.935,2007.51 297.769,2003.68 284.5,2000C 283.213,1998.59 282.046,1997.09 281,1995.5C 279.23,1996.28 277.397,1996.11 275.5,1995C 270.365,1992.55 265.365,1989.22 260.5,1985C 258.833,1984.67 257.167,1984.33 255.5,1984C 252.432,1980.39 249.266,1976.89 246,1973.5C 245.439,1974.02 244.772,1974.36 244,1974.5C 242.374,1973.71 240.874,1972.71 239.5,1971.5C 227.795,1959.07 217.295,1945.74 208,1931.5C 204.95,1923.65 201.45,1915.98 197.5,1908.5C 198.485,1906.9 198.651,1905.24 198,1903.5C 196.333,1900.83 194.667,1898.17 193,1895.5C 192.316,1894.22 192.483,1893.05 193.5,1892C 190.27,1888.64 189.937,1885.14 192.5,1881.5C 189.665,1879.17 188.999,1876.33 190.5,1873C 189.014,1870.71 188.014,1868.21 187.5,1865.5C 187.388,1862.1 187.721,1858.6 188.5,1855C 187.833,1852.67 187.167,1850.33 186.5,1848C 186.657,1844.02 186.657,1840.02 186.5,1836C 186.615,1834.1 187.282,1832.44 188.5,1831C 188,1830.5 187.5,1830 187,1829.5C 186.639,1826.47 186.139,1823.47 185.5,1820.5C 185.76,1818.81 186.427,1817.31 187.5,1816C 188.12,1811.6 187.453,1807.27 185.5,1803C 185.876,1793.92 185.876,1784.58 185.5,1775C 186.683,1766.96 187.683,1758.96 188.5,1751C 187.209,1748.48 187.542,1746.15 189.5,1744C 188.991,1741.29 188.657,1738.62 188.5,1736C 189.833,1732.33 191.167,1728.67 192.5,1725C 191.594,1719.74 191.594,1714.57 192.5,1709.5C 194.972,1703.1 196.972,1696.76 198.5,1690.5C 197.792,1688.11 198.458,1685.94 200.5,1684C 199.195,1681.01 199.528,1678.18 201.5,1675.5C 202.234,1674.29 202.567,1672.96 202.5,1671.5C 203.902,1666.58 205.069,1661.58 206,1656.5C 208.517,1650.66 211.017,1644.82 213.5,1639C 213.043,1638.59 212.709,1638.09 212.5,1637.5C 214.519,1634.46 215.686,1631.13 216,1627.5C 217.001,1624.83 218.501,1622.49 220.5,1620.5C 220.167,1619.83 219.833,1619.17 219.5,1618.5C 221.717,1615.93 222.884,1612.93 223,1609.5C 223.785,1607.71 224.951,1606.21 226.5,1605C 226.043,1604.59 225.709,1604.09 225.5,1603.5C 228.475,1600.02 230.309,1596.02 231,1591.5C 232.41,1590.21 233.91,1589.05 235.5,1588C 234.424,1586.27 234.257,1584.44 235,1582.5C 239.806,1575.67 243.806,1568.34 247,1560.5C 248,1559.83 249,1559.17 250,1558.5C 250.262,1553.31 252.595,1549.31 257,1546.5C 257.248,1541.88 259.414,1538.55 263.5,1536.5C 264.89,1530.78 267.89,1526.11 272.5,1522.5C 274.407,1516.26 278.407,1511.93 284.5,1509.5C 283.96,1508.25 283.293,1507.09 282.5,1506C 285.346,1501.48 289.179,1497.98 294,1495.5C 294.287,1492.13 295.454,1489.13 297.5,1486.5C 301.16,1483.01 304.994,1479.68 309,1476.5C 310.875,1472.59 313.375,1469.09 316.5,1466C 321.805,1460.92 327.638,1456.42 334,1452.5C 334.639,1447.88 336.806,1444.22 340.5,1441.5C 346.059,1437.23 351.392,1432.73 356.5,1428C 361.165,1426.17 364.832,1423.17 367.5,1419C 379.896,1410.47 391.896,1401.47 403.5,1392C 408.113,1390.21 412.78,1388.54 417.5,1387C 426.594,1379.45 436.594,1373.45 447.5,1369C 452.007,1363.82 457.507,1361.32 464,1361.5C 468.247,1358.29 472.747,1355.46 477.5,1353C 479.5,1353 481.5,1353 483.5,1353C 486.135,1351.69 488.469,1350.02 490.5,1348C 492.52,1346.78 494.52,1346.62 496.5,1347.5C 500.309,1344.52 504.476,1342.19 509,1340.5C 510.333,1341.17 511.667,1341.83 513,1342.5C 515.333,1340.83 517.333,1338.83 519,1336.5C 519.333,1336.83 519.667,1337.17 520,1337.5C 522.405,1336.73 524.905,1336.23 527.5,1336C 533.029,1334.29 538.529,1332.45 544,1330.5C 545.107,1330.59 546.107,1330.92 547,1331.5C 550.765,1328.92 554.765,1327.92 559,1328.5C 562.044,1325.54 565.544,1324.54 569.5,1325.5C 572.066,1324.63 574.566,1323.63 577,1322.5C 577.383,1323.06 577.883,1323.39 578.5,1323.5C 579.925,1325.03 580.591,1324.7 580.5,1322.5C 582.582,1322.53 584.416,1321.86 586,1320.5C 586.725,1321.06 587.558,1321.39 588.5,1321.5C 597.069,1320.31 605.403,1318.98 613.5,1317.5C 615.891,1318.9 618.057,1318.57 620,1316.5C 623.244,1317.69 626.41,1317.36 629.5,1315.5C 631.326,1317.78 633.326,1317.78 635.5,1315.5C 638.891,1316.5 642.224,1316.16 645.5,1314.5C 648.012,1315.76 650.512,1315.76 653,1314.5C 654.261,1314.76 655.261,1315.43 656,1316.5C 659.212,1313.68 662.546,1313.35 666,1315.5C 669.131,1314.79 672.298,1314.13 675.5,1313.5C 679.294,1313.41 683.294,1313.74 687.5,1314.5C 691.793,1313.69 696.126,1313.02 700.5,1312.5C 702.374,1312.39 703.874,1313.06 705,1314.5C 705.804,1313.2 706.971,1312.53 708.5,1312.5C 717.177,1311.95 725.844,1311.95 734.5,1312.5C 744.027,1311.35 753.527,1310.35 763,1309.5C 766.669,1309.83 770.336,1310.16 774,1310.5C 778.125,1309.28 782.125,1308.62 786,1308.5C 788.485,1310.76 790.818,1310.76 793,1308.5C 796.195,1309.42 799.361,1309.09 802.5,1307.5C 803.833,1308.17 805.167,1308.83 806.5,1309.5C 808.702,1308.22 810.868,1308.22 813,1309.5C 815.688,1307.62 818.522,1307.28 821.5,1308.5C 824.034,1306.27 826.701,1306.27 829.5,1308.5C 830.833,1307.83 832.167,1307.17 833.5,1306.5C 839.792,1306.41 845.959,1306.74 852,1307.5C 854.856,1306.23 857.689,1305.89 860.5,1306.5C 863.23,1303.98 865.73,1304.32 868,1307.5C 871.607,1305.81 875.441,1304.81 879.5,1304.5C 882.345,1305.73 885.178,1305.73 888,1304.5C 889.365,1304.84 890.532,1305.51 891.5,1306.5C 893.429,1305.62 895.263,1304.62 897,1303.5C 902.265,1303.94 907.598,1304.28 913,1304.5C 918.769,1302.53 924.602,1302.53 930.5,1304.5C 934.375,1302.15 938.375,1301.15 942.5,1301.5C 945.625,1303.91 948.792,1303.91 952,1301.5C 956.36,1302.31 960.694,1301.98 965,1300.5C 966.586,1301.38 968.086,1302.38 969.5,1303.5C 974.6,1300.77 979.934,1300.1 985.5,1301.5C 987.187,1301.24 988.687,1300.57 990,1299.5C 994.986,1299.64 999.986,1299.64 1005,1299.5C 1006.47,1299.9 1007.81,1300.57 1009,1301.5C 1010.35,1299.99 1012.02,1298.99 1014,1298.5C 1020.31,1299.09 1026.64,1299.43 1033,1299.5C 1035.67,1296.83 1038.33,1296.83 1041,1299.5C 1042.77,1297.36 1044.77,1297.03 1047,1298.5C 1050.64,1296.53 1054.14,1296.53 1057.5,1298.5C 1062.6,1296.7 1067.77,1296.36 1073,1297.5C 1075.9,1295.58 1078.57,1295.58 1081,1297.5C 1082.6,1296.35 1084.27,1296.35 1086,1297.5C 1091.73,1295.56 1097.4,1295.23 1103,1296.5C 1107.19,1296.07 1111.19,1295.07 1115,1293.5C 1116,1294.17 1117,1294.83 1118,1295.5C 1120.67,1294.17 1123.33,1294.17 1126,1295.5C 1127.92,1294.68 1129.92,1294.02 1132,1293.5C 1139.39,1294.65 1146.89,1294.31 1154.5,1292.5C 1156.1,1292.94 1157.6,1293.61 1159,1294.5C 1159.95,1294.09 1160.61,1293.43 1161,1292.5C 1163.16,1293.77 1165.33,1293.77 1167.5,1292.5C 1168.63,1293.35 1169.96,1293.35 1171.5,1292.5C 1172.82,1292.33 1173.99,1292.66 1175,1293.5C 1176.67,1291.99 1178.34,1291.32 1180,1291.5C 1180.67,1292.17 1181.33,1292.83 1182,1293.5C 1186.08,1292.1 1190.08,1291.1 1194,1290.5C 1196.47,1292.73 1198.8,1292.73 1201,1290.5C 1202,1291.17 1203,1291.83 1204,1292.5C 1205.57,1291.15 1207.41,1290.49 1209.5,1290.5C 1220.75,1290.3 1232.08,1290.3 1243.5,1290.5C 1245.18,1289.41 1247.02,1288.74 1249,1288.5C 1254.73,1288.17 1260.39,1288.84 1266,1290.5C 1267.3,1289.02 1268.97,1288.35 1271,1288.5C 1276.06,1288.68 1280.72,1288.68 1285,1288.5C 1286.47,1288.9 1287.81,1289.57 1289,1290.5C 1295.77,1289.6 1302.77,1289.93 1310,1291.5C 1311.42,1290.79 1312.76,1290.46 1314,1290.5C 1320.8,1291.3 1327.63,1292.97 1334.5,1295.5C 1336.34,1294.81 1338.17,1295.14 1340,1296.5C 1343.5,1295.76 1346.83,1295.76 1350,1296.5C 1353.21,1297.77 1356.38,1299.11 1359.5,1300.5C 1363.32,1299.11 1366.49,1300.11 1369,1303.5C 1370.39,1302.45 1371.89,1302.28 1373.5,1303C 1374.63,1305.17 1376.13,1305.67 1378,1304.5C 1382.76,1306.39 1387.42,1308.39 1392,1310.5C 1394.67,1310.06 1397.17,1310.89 1399.5,1313C 1403.14,1312.68 1405.8,1314.02 1407.5,1317C 1409.5,1317.33 1411.5,1317.67 1413.5,1318C 1418.13,1320.23 1422.47,1322.9 1426.5,1326C 1430.67,1325.42 1434,1327.08 1436.5,1331C 1440.54,1331.34 1443.88,1333.01 1446.5,1336C 1451.41,1337.08 1455.41,1339.58 1458.5,1343.5C 1460.08,1344.3 1461.74,1344.8 1463.5,1345C 1468.62,1350.13 1474.29,1354.46 1480.5,1358C 1481.96,1359.74 1483.29,1361.58 1484.5,1363.5C 1486.42,1364.31 1488.42,1364.81 1490.5,1365C 1491.55,1366.38 1492.88,1367.38 1494.5,1368C 1496.83,1371 1499.17,1374 1501.5,1377C 1505.31,1377.78 1508.64,1379.45 1511.5,1382C 1518.27,1389.72 1524.44,1397.89 1530,1406.5C 1538.58,1413.58 1546.41,1421.58 1553.5,1430.5C 1554.15,1433.23 1554.98,1435.89 1556,1438.5C 1561.62,1447.41 1567.95,1455.74 1575,1463.5C 1577.33,1466.47 1577.83,1469.63 1576.5,1473C 1581.3,1478.47 1585.3,1484.47 1588.5,1491C 1587.67,1492.47 1587.5,1493.97 1588,1495.5C 1592.32,1504.24 1596.82,1512.91 1601.5,1521.5C 1600.21,1525.28 1601.04,1528.62 1604,1531.5C 1605.35,1537.52 1606.68,1543.52 1608,1549.5C 1609.17,1551.83 1610.33,1554.17 1611.5,1556.5C 1611.79,1560.79 1611.79,1565.12 1611.5,1569.5C 1614.15,1571.93 1614.81,1574.77 1613.5,1578C 1614.38,1580.26 1615.38,1582.43 1616.5,1584.5C 1616.17,1585.83 1615.83,1587.17 1615.5,1588.5C 1618.08,1594.88 1618.42,1600.88 1616.5,1606.5C 1617.5,1608.17 1618.5,1609.83 1619.5,1611.5C 1618.69,1613.83 1619.02,1616.16 1620.5,1618.5C 1620.03,1621.53 1620.03,1624.7 1620.5,1628C 1620.05,1629.29 1619.38,1630.45 1618.5,1631.5C 1620.78,1633.67 1620.78,1635.67 1618.5,1637.5C 1619.04,1638.75 1619.71,1639.91 1620.5,1641C 1621.14,1647.36 1620.48,1653.7 1618.5,1660C 1618.91,1663.51 1619.24,1667.01 1619.5,1670.5C 1618.67,1673.48 1617.67,1676.48 1616.5,1679.5C 1617.87,1682.2 1617.54,1684.7 1615.5,1687C 1616.06,1687.72 1616.39,1688.56 1616.5,1689.5C 1615.86,1692.47 1615.36,1695.47 1615,1698.5C 1613.24,1699.42 1613.08,1700.59 1614.5,1702C 1613.13,1707.12 1611.96,1712.29 1611,1717.5C 1610.5,1718.67 1609.67,1719.5 1608.5,1720C 1609.48,1723.4 1609.48,1726.57 1608.5,1729.5C 1608.14,1732.11 1606.81,1733.95 1604.5,1735C 1604.83,1736 1605.17,1737 1605.5,1738C 1603.44,1743.4 1601.61,1748.9 1600,1754.5C 1599.21,1756.59 1598.04,1758.42 1596.5,1760C 1597.52,1761.05 1597.68,1762.22 1597,1763.5C 1596.05,1765.57 1594.55,1767.07 1592.5,1768C 1593.18,1771.94 1591.85,1775.27 1588.5,1778C 1589.48,1781.36 1588.31,1783.86 1585,1785.5C 1584.71,1787.89 1584.21,1790.22 1583.5,1792.5C 1580.9,1797.46 1577.73,1802.13 1574,1806.5C 1573.67,1808.5 1573.33,1810.5 1573,1812.5C 1568.19,1818.62 1563.02,1824.45 1557.5,1830C 1557.83,1830.33 1558.17,1830.67 1558.5,1831C 1555.97,1836.87 1551.97,1841.53 1546.5,1845C 1546.83,1845.33 1547.17,1845.67 1547.5,1846C 1546.81,1847.07 1546.31,1848.23 1546,1849.5C 1542.68,1854.48 1538.35,1858.48 1533,1861.5C 1532.16,1867.18 1528.99,1870.84 1523.5,1872.5 Z M 1377.5,1615.5 C 1378.07,1616.97 1378.07,1618.64 1377.5,1620.5C 1377.75,1622.17 1378.42,1623.67 1379.5,1625C 1377.58,1626.46 1376.91,1628.13 1377.5,1630C 1378.11,1633.48 1379.11,1637.14 1380.5,1641C 1380.05,1642.29 1379.38,1643.45 1378.5,1644.5C 1379.19,1647.07 1379.52,1649.57 1379.5,1652C 1376.76,1654.77 1376.43,1657.6 1378.5,1660.5C 1376.93,1662.88 1376.1,1665.55 1376,1668.5C 1373.67,1672.5 1371.33,1676.5 1369,1680.5C 1369.06,1684.44 1367.4,1687.44 1364,1689.5C 1364.15,1693.12 1362.65,1695.62 1359.5,1697C 1353.95,1702.05 1348.95,1707.55 1344.5,1713.5C 1336.21,1717.31 1328.21,1721.64 1320.5,1726.5C 1319.91,1726.29 1319.41,1725.96 1319,1725.5C 1315.63,1726.77 1312.46,1728.44 1309.5,1730.5C 1306.92,1729.06 1304.58,1729.4 1302.5,1731.5C 1299.01,1730.08 1295.68,1730.41 1292.5,1732.5C 1290.35,1731.24 1288.18,1731.24 1286,1732.5C 1282.72,1730.62 1279.39,1730.95 1276,1733.5C 1265.49,1733.51 1255.15,1733.18 1245,1732.5C 1241.71,1734.03 1238.38,1734.37 1235,1733.5C 1233.67,1734.17 1232.33,1734.83 1231,1735.5C 1229.81,1734.57 1228.47,1733.9 1227,1733.5C 1223.18,1734.21 1219.34,1734.87 1215.5,1735.5C 1211.3,1735.24 1207.13,1734.9 1203,1734.5C 1201.67,1735.17 1200.33,1735.83 1199,1736.5C 1192.11,1735.59 1185.11,1735.26 1178,1735.5C 1177,1736.17 1176,1736.83 1175,1737.5C 1173.05,1736.31 1171.05,1736.31 1169,1737.5C 1165.72,1735.62 1162.39,1735.95 1159,1738.5C 1155.53,1737.8 1152.03,1737.13 1148.5,1736.5C 1147.06,1737.3 1145.56,1737.97 1144,1738.5C 1140.7,1737.49 1137.2,1737.16 1133.5,1737.5C 1131.06,1739.92 1128.73,1739.92 1126.5,1737.5C 1124.05,1737.98 1121.88,1738.98 1120,1740.5C 1119.26,1739.43 1118.26,1738.76 1117,1738.5C 1114.7,1739.63 1112.36,1739.63 1110,1738.5C 1108.02,1738.74 1106.18,1739.41 1104.5,1740.5C 1098.84,1740.82 1093.34,1740.49 1088,1739.5C 1085.8,1740.09 1083.64,1740.76 1081.5,1741.5C 1076.49,1739.94 1071.66,1740.27 1067,1742.5C 1060.49,1741.72 1053.99,1741.39 1047.5,1741.5C 1044.07,1743.59 1040.73,1743.59 1037.5,1741.5C 1036.03,1743.38 1034.2,1743.38 1032,1741.5C 1028.59,1743.71 1025.25,1744.04 1022,1742.5C 1019.82,1744.76 1017.48,1744.76 1015,1742.5C 1012.12,1743.25 1009.45,1743.25 1007,1742.5C 1005.49,1743.26 1004.15,1744.26 1003,1745.5C 1002.26,1744.43 1001.26,1743.76 1000,1743.5C 997.696,1744.11 995.196,1744.11 992.5,1743.5C 982.995,1744.46 973.495,1745.46 964,1746.5C 962.441,1745.97 960.941,1745.3 959.5,1744.5C 955.862,1745.25 952.195,1745.91 948.5,1746.5C 946.528,1745.56 944.695,1745.22 943,1745.5C 941,1748.17 939,1748.17 937,1745.5C 935.334,1747.4 933.5,1747.74 931.5,1746.5C 929.116,1747.01 926.783,1747.68 924.5,1748.5C 923.522,1748.02 922.689,1747.36 922,1746.5C 919.534,1747.79 917.034,1747.79 914.5,1746.5C 911.687,1747.93 908.854,1748.26 906,1747.5C 904.527,1747.9 903.194,1748.57 902,1749.5C 900.806,1748.57 899.473,1747.9 898,1747.5C 893.51,1748.2 889.01,1748.87 884.5,1749.5C 882.208,1747.98 880.208,1748.31 878.5,1750.5C 877.452,1749.62 876.285,1748.95 875,1748.5C 870.811,1748.93 866.811,1749.93 863,1751.5C 862.5,1751 862,1750.5 861.5,1750C 858.733,1749.94 856.067,1749.78 853.5,1749.5C 852.252,1750.04 851.085,1750.71 850,1751.5C 845.485,1750.54 840.818,1750.21 836,1750.5C 831.825,1751.13 827.658,1751.79 823.5,1752.5C 821.971,1752.47 820.804,1751.8 820,1750.5C 817.888,1752.92 815.888,1752.92 814,1750.5C 809.543,1751.73 805.043,1752.73 800.5,1753.5C 799.71,1752.6 798.71,1751.93 797.5,1751.5C 795.323,1751.59 793.323,1752.25 791.5,1753.5C 789.139,1752.22 786.972,1752.56 785,1754.5C 782.267,1752.11 779.6,1752.11 777,1754.5C 775.54,1752.58 773.873,1751.91 772,1752.5C 769.626,1754.25 767.126,1754.58 764.5,1753.5C 763.5,1754.17 762.5,1754.83 761.5,1755.5C 760.312,1754.16 758.812,1753.49 757,1753.5C 744.909,1754.38 733.076,1755.38 721.5,1756.5C 720.522,1756.02 719.689,1755.36 719,1754.5C 717.293,1755.46 715.459,1756.13 713.5,1756.5C 707.676,1756.46 701.509,1756.46 695,1756.5C 692.739,1756.44 690.739,1757.11 689,1758.5C 687,1755.83 685,1755.83 683,1758.5C 681.806,1757.57 680.473,1756.9 679,1756.5C 675.18,1757.21 671.347,1758.21 667.5,1759.5C 664.947,1756.96 662.447,1756.96 660,1759.5C 659.196,1758.2 658.029,1757.53 656.5,1757.5C 654.303,1758.07 652.136,1758.73 650,1759.5C 639.323,1759.42 628.656,1759.42 618,1759.5C 616.216,1760.31 614.383,1760.98 612.5,1761.5C 606.535,1761.24 600.535,1760.91 594.5,1760.5C 589.365,1762.7 584.199,1762.7 579,1760.5C 575.751,1762.29 572.418,1762.62 569,1761.5C 566.729,1763.43 564.729,1763.43 563,1761.5C 561.806,1762.43 560.473,1763.1 559,1763.5C 544.192,1763.31 529.692,1763.31 515.5,1763.5C 513.587,1764.37 511.753,1765.37 510,1766.5C 509.044,1765.11 507.711,1764.44 506,1764.5C 502.219,1763.85 498.553,1764.52 495,1766.5C 488.874,1766.77 482.874,1766.43 477,1765.5C 473.715,1767.68 470.549,1767.68 467.5,1765.5C 465.5,1766.83 463.5,1766.83 461.5,1765.5C 458.363,1768.39 455.196,1768.73 452,1766.5C 449.729,1768.43 447.729,1768.43 446,1766.5C 441.92,1767.3 437.753,1767.8 433.5,1768C 430.421,1769.8 428.421,1768.8 427.5,1765C 428.863,1759.51 430.197,1754.01 431.5,1748.5C 429.827,1745.69 430.327,1743.36 433,1741.5C 434.794,1735.29 436.127,1728.95 437,1722.5C 438.385,1721.45 439.385,1720.12 440,1718.5C 441.713,1714.49 442.713,1710.49 443,1706.5C 444.046,1704.91 445.213,1703.41 446.5,1702C 446.315,1699.18 447.482,1696.68 450,1694.5C 450.333,1692.5 450.667,1690.5 451,1688.5C 452.333,1687.83 453.333,1686.83 454,1685.5C 454.182,1682.77 454.682,1680.11 455.5,1677.5C 459.506,1675.36 462.006,1672.03 463,1667.5C 464.992,1666.67 466.492,1665.34 467.5,1663.5C 468.234,1662.29 468.567,1660.96 468.5,1659.5C 470.092,1655.41 472.925,1652.41 477,1650.5C 477.309,1649.23 477.809,1648.07 478.5,1647C 478.167,1646.67 477.833,1646.33 477.5,1646C 483.548,1641.15 488.882,1635.65 493.5,1629.5C 493.291,1628.91 492.957,1628.41 492.5,1628C 496.293,1625.45 499.626,1622.45 502.5,1619C 507.165,1617.17 510.832,1614.17 513.5,1610C 524.97,1602.35 535.97,1594.18 546.5,1585.5C 548.48,1586.38 550.48,1586.22 552.5,1585C 556.772,1582.73 560.772,1580.06 564.5,1577C 570.045,1575.91 575.378,1573.58 580.5,1570C 583.5,1569.67 586.5,1569.33 589.5,1569C 595.607,1566.77 601.441,1563.94 607,1560.5C 609.401,1563.96 611.901,1563.79 614.5,1560C 621.276,1560.54 627.776,1559.37 634,1556.5C 635.462,1556.99 636.962,1557.33 638.5,1557.5C 647.898,1556.91 657.231,1555.91 666.5,1554.5C 669.514,1556.57 672.514,1556.24 675.5,1553.5C 676.478,1553.98 677.311,1554.64 678,1555.5C 684.617,1555.45 691.283,1554.45 698,1552.5C 703.211,1554.77 708.378,1554.44 713.5,1551.5C 715.059,1552.45 716.726,1553.11 718.5,1553.5C 723.104,1554.03 727.604,1553.37 732,1551.5C 736.563,1552.31 740.896,1552.64 745,1552.5C 748.131,1551.79 751.298,1551.13 754.5,1550.5C 759.731,1551.33 764.898,1551.66 770,1551.5C 772.333,1550.83 774.667,1550.17 777,1549.5C 779.182,1551.76 781.515,1551.76 784,1549.5C 785.285,1549.95 786.452,1550.62 787.5,1551.5C 791.754,1550.32 795.921,1548.99 800,1547.5C 802.378,1550.93 805.045,1551.26 808,1548.5C 811.55,1548.61 815.383,1548.94 819.5,1549.5C 820.748,1548.96 821.915,1548.29 823,1547.5C 838.216,1547.13 853.216,1547.13 868,1547.5C 869.194,1546.57 870.527,1545.9 872,1545.5C 879.147,1546.08 886.147,1546.42 893,1546.5C 895.607,1545.73 898.273,1545.06 901,1544.5C 904.542,1546.02 907.875,1545.69 911,1543.5C 913.132,1544.78 915.298,1544.78 917.5,1543.5C 918.833,1544.17 920.167,1544.83 921.5,1545.5C 925.751,1544.33 929.918,1543.33 934,1542.5C 936,1545.17 938,1545.17 940,1542.5C 941.194,1543.43 942.527,1544.1 944,1544.5C 945.908,1543.55 947.908,1542.88 950,1542.5C 953.396,1542.43 956.896,1542.76 960.5,1543.5C 962.167,1542.83 963.833,1542.17 965.5,1541.5C 976.577,1541.63 987.577,1541.63 998.5,1541.5C 1000.69,1541.41 1002.69,1540.74 1004.5,1539.5C 1007.37,1540.79 1010.2,1540.79 1013,1539.5C 1014,1540.17 1015,1540.83 1016,1541.5C 1016.74,1540.43 1017.74,1539.76 1019,1539.5C 1025.38,1538.21 1031.71,1538.21 1038,1539.5C 1040.38,1539.52 1042.55,1538.85 1044.5,1537.5C 1050.1,1538.58 1055.76,1539.25 1061.5,1539.5C 1064.47,1536.21 1067.63,1535.88 1071,1538.5C 1073.33,1537.17 1075.67,1537.17 1078,1538.5C 1079.98,1538.01 1081.65,1537.01 1083,1535.5C 1084.09,1536.29 1085.25,1536.96 1086.5,1537.5C 1091.06,1537.21 1095.56,1537.21 1100,1537.5C 1101.31,1536.43 1102.81,1535.76 1104.5,1535.5C 1108.3,1536.44 1111.96,1536.77 1115.5,1536.5C 1117.83,1535.83 1120.17,1535.17 1122.5,1534.5C 1125.03,1535.79 1127.53,1535.79 1130,1534.5C 1131,1535.17 1132,1535.83 1133,1536.5C 1137.15,1534.92 1141.48,1533.92 1146,1533.5C 1148,1534.83 1150,1534.83 1152,1533.5C 1153.47,1533.9 1154.81,1534.57 1156,1535.5C 1160,1534.21 1164,1533.21 1168,1532.5C 1170.75,1534.91 1173.42,1534.91 1176,1532.5C 1182.05,1532.51 1188.05,1532.84 1194,1533.5C 1197.25,1531.71 1200.58,1531.38 1204,1532.5C 1205.09,1531.71 1206.25,1531.04 1207.5,1530.5C 1208.55,1531.38 1209.71,1532.05 1211,1532.5C 1214.19,1531.88 1217.35,1531.21 1220.5,1530.5C 1225.08,1531.23 1229.74,1531.57 1234.5,1531.5C 1236.46,1531.13 1238.29,1530.46 1240,1529.5C 1254.22,1529.1 1268.22,1529.1 1282,1529.5C 1289.85,1530.4 1297.52,1532.07 1305,1534.5C 1305.87,1534.26 1306.71,1533.93 1307.5,1533.5C 1309.31,1535.61 1311.47,1537.27 1314,1538.5C 1315.39,1537.45 1316.89,1537.28 1318.5,1538C 1323.89,1543.19 1330.23,1547.03 1337.5,1549.5C 1340.63,1552.8 1343.63,1556.3 1346.5,1560C 1349,1560.89 1351.33,1562.05 1353.5,1563.5C 1356.15,1567.48 1359.15,1571.15 1362.5,1574.5C 1363.07,1578.37 1364.24,1582.04 1366,1585.5C 1371.18,1589.83 1373.51,1595.16 1373,1601.5C 1375.78,1605.75 1377.28,1610.41 1377.5,1615.5 Z"/></g>
<g><path style="opacity:0.008" fill="#4e4e4e" d="M 1171.5,1292.5 C 1169.96,1293.35 1168.63,1293.35 1167.5,1292.5C 1168.96,1291.31 1170.29,1291.31 1171.5,1292.5 Z"/></g>
<g><path style="opacity:0.014" fill="#ebebeb" d="M 173.5,1300.5 C 172.175,1299.05 171.342,1299.38 171,1301.5C 169.887,1300.69 168.721,1300.03 167.5,1299.5C 167.959,1295.18 169.792,1294.51 173,1297.5C 173.483,1298.45 173.649,1299.45 173.5,1300.5 Z"/></g>
<g><path style="opacity:0.011" fill="#e2e2e2" d="M 123.5,1299.5 C 124.995,1299.41 125.995,1300.08 126.5,1301.5C 125.68,1303.11 124.346,1303.78 122.5,1303.5C 122.433,1302.04 122.766,1300.71 123.5,1299.5 Z"/></g>
<g><path style="opacity:0.236" fill="#ebebeb" d="M 167.5,1299.5 C 168.721,1300.03 169.887,1300.69 171,1301.5C 171.342,1299.38 172.175,1299.05 173.5,1300.5C 173.703,1302.39 173.037,1303.89 171.5,1305C 173.57,1306.46 174.903,1308.46 175.5,1311C 174.31,1312.81 174.31,1314.64 175.5,1316.5C 175.113,1318.27 174.447,1319.94 173.5,1321.5C 175.03,1323.23 176.03,1325.23 176.5,1327.5C 175.869,1330.88 175.535,1334.21 175.5,1337.5C 176.167,1339.5 176.833,1341.5 177.5,1343.5C 176.908,1345.42 175.908,1347.09 174.5,1348.5C 169.515,1341.59 165.849,1333.92 163.5,1325.5C 164.055,1321.2 165.055,1317.04 166.5,1313C 166.816,1310.27 166.483,1307.77 165.5,1305.5C 166.172,1303.47 166.838,1301.47 167.5,1299.5 Z"/></g>
<g><path style="opacity:0.016" fill="#f0f0f0" d="M 119.5,1320.5 C 123.071,1320.41 124.238,1322.07 123,1325.5C 120.306,1329.27 117.806,1332.6 115.5,1335.5C 114.28,1335.11 113.613,1334.28 113.5,1333C 114.831,1328.5 116.831,1324.34 119.5,1320.5 Z"/></g>
<g><path style="opacity:0.004" fill="#191919" d="M 578.5,1323.5 C 578.842,1322.66 579.508,1322.33 580.5,1322.5C 580.591,1324.7 579.925,1325.03 578.5,1323.5 Z"/></g>
<g><path style="opacity:0.004" fill="#909090" d="M 174.5,1348.5 C 176.225,1348.84 176.725,1349.84 176,1351.5C 173.842,1350.95 173.342,1349.95 174.5,1348.5 Z"/></g>
<g><path style="opacity:0.015" fill="#cccccc" d="M 161.5,1380.5 C 164.279,1382.3 164.112,1383.97 161,1385.5C 158.99,1383.6 159.157,1381.94 161.5,1380.5 Z"/></g>
<g><path style="opacity:0.02" fill="#d8d8d8" d="M 155.5,1400.5 C 157.359,1400.46 158.692,1401.29 159.5,1403C 158.166,1405.66 157.332,1408.49 157,1411.5C 156.333,1412.17 155.667,1412.83 155,1413.5C 151.746,1409.14 151.913,1404.81 155.5,1400.5 Z"/></g>
<g><path style="opacity:0.004" fill="#222222" d="M 2136.5,1527.5 C 2135.71,1529.1 2134.38,1529.77 2132.5,1529.5C 2133.29,1527.9 2134.62,1527.23 2136.5,1527.5 Z"/></g>
<g><path style="opacity:0.021" fill="#eaeaea" d="M 26.5,1574.5 C 30.8004,1574.82 32.467,1577.15 31.5,1581.5C 28.7733,1580.63 26.7733,1578.8 25.5,1576C 26.056,1575.62 26.3893,1575.12 26.5,1574.5 Z"/></g>
<g><path style="opacity:0.008" fill="#dbdbdb" d="M 68.5,1591.5 C 65.7709,1589.86 65.4376,1588.19 67.5,1586.5C 71.1276,1587.44 71.4609,1589.1 68.5,1591.5 Z"/></g>
<g><path style="opacity:0.01" fill="#ececec" d="M 68.5,1591.5 C 72.485,1591.63 73.8183,1593.46 72.5,1597C 68.135,1597.45 66.8016,1595.61 68.5,1591.5 Z"/></g>
<g><path style="opacity:0.007" fill="#dcdcdc" d="M 40.5,1593.5 C 42.7271,1594.4 43.7271,1596.07 43.5,1598.5C 38.5162,1598.86 37.5162,1597.19 40.5,1593.5 Z"/></g>
<g><path style="opacity:0.01" fill="#e6e6e6" d="M 57.5,1600.5 C 61.3107,1600.18 62.6441,1601.68 61.5,1605C 64.2796,1607.11 64.1129,1608.94 61,1610.5C 59.3022,1608.73 57.9689,1606.73 57,1604.5C 56.4209,1603.07 56.5876,1601.74 57.5,1600.5 Z"/></g>
<g><path style="opacity:0.01" fill="#4e4e4e" d="M 1377.5,1615.5 C 1381.4,1617.09 1381.4,1618.76 1377.5,1620.5C 1378.07,1618.64 1378.07,1616.97 1377.5,1615.5 Z"/></g>
<g><path style="opacity:0.008" fill="#565656" d="M 468.5,1659.5 C 468.567,1660.96 468.234,1662.29 467.5,1663.5C 466.529,1662.04 466.862,1660.7 468.5,1659.5 Z"/></g>
<g><path style="opacity:0.004" fill="#222222" d="M 202.5,1671.5 C 202.567,1672.96 202.234,1674.29 201.5,1675.5C 200.529,1674.04 200.862,1672.7 202.5,1671.5 Z"/></g>
<g><path style="opacity:0.177" fill="#e6e6e6" d="M 80.5,1723.5 C 81.397,1724.6 82.2303,1724.6 83,1723.5C 84.023,1724.6 84.523,1725.93 84.5,1727.5C 82.0472,1733.18 80.5472,1739.18 80,1745.5C 79.3551,1746.65 78.5217,1747.65 77.5,1748.5C 78.5176,1750.89 77.8509,1752.89 75.5,1754.5C 74.9202,1752.36 73.9202,1750.53 72.5,1749C 72.5807,1743.22 72.5807,1737.39 72.5,1731.5C 73.9118,1727.48 76.5784,1724.82 80.5,1723.5 Z"/></g>
<g><path style="opacity:0.984" fill="#f2f2f2" d="M 2507.5,2360.5 C 2506.48,2363.23 2507.48,2365.23 2510.5,2366.5C 2512.06,2371.24 2513.89,2375.91 2516,2380.5C 2517,2381.5 2518,2382.5 2519,2383.5C 2520.33,2387.5 2521.67,2391.5 2523,2395.5C 2525.61,2397.11 2526.94,2399.44 2527,2402.5C 2527.75,2403.13 2528.58,2403.63 2529.5,2404C 2529.17,2404.33 2528.83,2404.67 2528.5,2405C 2531.35,2412.86 2534.69,2420.53 2538.5,2428C 2537.04,2430.25 2537.7,2431.75 2540.5,2432.5C 2543.51,2436.34 2545.35,2440.68 2546,2445.5C 2547.48,2449.13 2549.48,2452.47 2552,2455.5C 2554.9,2464.38 2558.24,2473.04 2562,2481.5C 2566.79,2487.74 2569.95,2494.74 2571.5,2502.5C 2575.14,2507.3 2578.14,2512.47 2580.5,2518C 2580.5,2519.4 2580.17,2520.9 2579.5,2522.5C 2581.15,2523.65 2582.65,2524.98 2584,2526.5C 2584.27,2529.43 2585.44,2531.93 2587.5,2534C 2587.04,2534.41 2586.71,2534.91 2586.5,2535.5C 2591.55,2542.41 2595.05,2550.08 2597,2558.5C 2600.93,2562.29 2602.93,2566.95 2603,2572.5C 2609.31,2583.45 2615.15,2594.61 2620.5,2606C 2619.69,2608.58 2620.52,2610.75 2623,2612.5C 2625.49,2620.29 2628.82,2627.62 2633,2634.5C 2633.93,2640.22 2636.43,2645.06 2640.5,2649C 2639.48,2650.05 2639.32,2651.22 2640,2652.5C 2642.81,2656.82 2644.81,2661.15 2646,2665.5C 2649.4,2672.53 2652.9,2679.53 2656.5,2686.5C 2656.29,2687.09 2655.96,2687.59 2655.5,2688C 2657.17,2689 2658.5,2690.33 2659.5,2692C 2658.33,2693.87 2658.83,2695.37 2661,2696.5C 2661.33,2698.17 2661.67,2699.83 2662,2701.5C 2666.21,2710.34 2670.71,2719.01 2675.5,2727.5C 2675.29,2728.09 2674.96,2728.59 2674.5,2729C 2676.91,2730.99 2677.57,2733.32 2676.5,2736C 2680.72,2737.73 2682.55,2740.9 2682,2745.5C 2685.11,2750.42 2687.95,2755.42 2690.5,2760.5C 2691.45,2764.25 2692.62,2767.91 2694,2771.5C 2697.33,2778.13 2700.66,2784.8 2704,2791.5C 2706.93,2801.79 2710.26,2812.12 2714,2822.5C 2714.5,2829.03 2715,2835.7 2715.5,2842.5C 2711.36,2845.39 2711.69,2847.39 2716.5,2848.5C 2716.39,2849.12 2716.06,2849.62 2715.5,2850C 2716.17,2852.33 2716.83,2854.67 2717.5,2857C 2714.8,2860.14 2714.47,2863.31 2716.5,2866.5C 2715.88,2869.17 2714.88,2871.67 2713.5,2874C 2714.57,2874.74 2715.24,2875.74 2715.5,2877C 2714.59,2880.22 2713.26,2883.22 2711.5,2886C 2712.29,2887.09 2712.96,2888.25 2713.5,2889.5C 2712.26,2894.22 2710.26,2898.55 2707.5,2902.5C 2708.6,2905.85 2708.44,2909.18 2707,2912.5C 2698.36,2929.11 2688.69,2945.11 2678,2960.5C 2673.5,2962.33 2670.33,2965.5 2668.5,2970C 2666.23,2971.68 2663.73,2972.84 2661,2973.5C 2659.01,2978.49 2655.51,2981.66 2650.5,2983C 2649.07,2986.83 2646.57,2988.33 2643,2987.5C 2641.95,2989.09 2640.79,2990.59 2639.5,2992C 2633.73,2995.3 2627.9,2998.47 2622,3001.5C 2621.13,3001.26 2620.29,3000.93 2619.5,3000.5C 2615.97,3003.52 2612.13,3006.19 2608,3008.5C 2607.44,3007.98 2606.77,3007.64 2606,3007.5C 2597.7,3012.32 2589.04,3016.32 2580,3019.5C 2579.23,3019.36 2578.56,3019.02 2578,3018.5C 2569.71,3024.75 2560.38,3028.75 2550,3030.5C 2548.78,3031.27 2547.78,3032.27 2547,3033.5C 2546.67,3033.17 2546.33,3032.83 2546,3032.5C 2543.32,3034.05 2540.49,3035.39 2537.5,3036.5C 2536.91,3036.29 2536.41,3035.96 2536,3035.5C 2531.82,3038.12 2527.48,3039.45 2523,3039.5C 2521.28,3041.91 2519.12,3042.57 2516.5,3041.5C 2502.58,3046.1 2488.75,3050.1 2475,3053.5C 2474,3052.83 2473,3052.17 2472,3051.5C 2465.45,3053.33 2459.12,3055 2453,3056.5C 2449.94,3055.5 2446.94,3055.83 2444,3057.5C 2443,3057.17 2442,3056.83 2441,3056.5C 2436.87,3057.4 2432.7,3058.07 2428.5,3058.5C 2427.5,3057.17 2426.5,3057.17 2425.5,3058.5C 2422.86,3059.82 2420.2,3059.82 2417.5,3058.5C 2415.03,3060.35 2412.86,3060.35 2411,3058.5C 2409.56,3059.26 2408.06,3059.93 2406.5,3060.5C 2401.43,3060.26 2396.1,3059.93 2390.5,3059.5C 2389.35,3059.82 2388.52,3060.48 2388,3061.5C 2387,3060.83 2386,3060.17 2385,3059.5C 2376.94,3059.27 2368.61,3059.6 2360,3060.5C 2358.02,3060.26 2356.18,3059.59 2354.5,3058.5C 2350.63,3061.42 2347.13,3061.09 2344,3057.5C 2342.77,3058.11 2341.44,3058.44 2340,3058.5C 2333.36,3057.76 2326.7,3056.76 2320,3055.5C 2318.35,3055.86 2316.68,3056.19 2315,3056.5C 2311.6,3053.91 2307.93,3053.24 2304,3054.5C 2298.95,3051.65 2293.95,3050.65 2289,3051.5C 2282.83,3048.5 2276.33,3046.67 2269.5,3046C 2267.17,3044.83 2264.83,3043.67 2262.5,3042.5C 2261.81,3043.03 2261.31,3043.69 2261,3044.5C 2255.18,3043.67 2249.68,3041.34 2244.5,3037.5C 2240.79,3038.81 2237.13,3038.64 2233.5,3037C 2230.17,3035 2226.83,3033 2223.5,3031C 2221.76,3030.35 2220.1,3030.52 2218.5,3031.5C 2208.41,3026.61 2198.75,3021.61 2189.5,3016.5C 2186.48,3017.56 2183.48,3017.4 2180.5,3016C 2155.62,3002.22 2130.95,2987.89 2106.5,2973C 2104.52,2970.69 2102.85,2968.19 2101.5,2965.5C 2094.03,2961.26 2086.7,2956.76 2079.5,2952C 2077.25,2950.25 2075.58,2948.09 2074.5,2945.5C 2070.27,2941.97 2065.94,2939.13 2061.5,2937C 2059.07,2934.8 2057.4,2932.14 2056.5,2929C 2050.91,2926.72 2046.58,2923.05 2043.5,2918C 2043.83,2917.67 2044.17,2917.33 2044.5,2917C 2041.67,2914.75 2038.67,2912.75 2035.5,2911C 2033.34,2909.35 2032,2907.19 2031.5,2904.5C 2026.38,2901.89 2022.88,2897.89 2021,2892.5C 2016.61,2890.44 2013.61,2887.1 2012,2882.5C 2010.32,2880.65 2008.48,2878.98 2006.5,2877.5C 2003.14,2873.27 2000.3,2868.6 1998,2863.5C 1996.62,2861.79 1994.96,2860.45 1993,2859.5C 1985.23,2848.41 1977.89,2837.07 1971,2825.5C 1966,2815.98 1961.17,2806.31 1956.5,2796.5C 1955.52,2796.02 1954.69,2795.36 1954,2794.5C 1949.89,2786.04 1946.22,2777.38 1943,2768.5C 1940.21,2766.59 1938.88,2763.92 1939,2760.5C 1937.28,2758.13 1935.78,2755.63 1934.5,2753C 1934.83,2752.67 1935.17,2752.33 1935.5,2752C 1923.86,2728.06 1912.53,2704.06 1901.5,2680C 1901.83,2679.67 1902.17,2679.33 1902.5,2679C 1898.75,2672.26 1895.08,2665.42 1891.5,2658.5C 1890.9,2655.16 1889.57,2652.16 1887.5,2649.5C 1887.83,2648.83 1888.17,2648.17 1888.5,2647.5C 1886.43,2644.12 1884.26,2640.78 1882,2637.5C 1881.88,2634.07 1880.72,2631.07 1878.5,2628.5C 1878.83,2627.83 1879.17,2627.17 1879.5,2626.5C 1877.68,2625.19 1876.02,2623.69 1874.5,2622C 1874.83,2621.67 1875.17,2621.33 1875.5,2621C 1874.58,2618.42 1873.25,2616.09 1871.5,2614C 1872.33,2611.72 1871.5,2609.89 1869,2608.5C 1864.97,2599.04 1860.63,2589.7 1856,2580.5C 1855.41,2579.1 1855.57,2577.77 1856.5,2576.5C 1850.61,2570.38 1847.11,2563.05 1846,2554.5C 1842.32,2550.15 1839.99,2545.15 1839,2539.5C 1835.89,2534.72 1833.22,2529.72 1831,2524.5C 1830.26,2522.56 1830.42,2520.73 1831.5,2519C 1826.5,2515.5 1823.66,2510.67 1823,2504.5C 1819.8,2498.55 1816.64,2493.05 1813.5,2488C 1814.55,2486.61 1814.72,2485.11 1814,2483.5C 1810.63,2480.06 1808.13,2476.06 1806.5,2471.5C 1806.71,2470.91 1807.04,2470.41 1807.5,2470C 1802.95,2463.38 1799.45,2455.88 1797,2447.5C 1795.5,2445.67 1794,2443.83 1792.5,2442C 1792.83,2441.67 1793.17,2441.33 1793.5,2441C 1790.85,2435.63 1788.35,2430.13 1786,2424.5C 1784.24,2423.53 1783.74,2422.36 1784.5,2421C 1782.09,2419.01 1781.43,2416.68 1782.5,2414C 1781.27,2412.37 1779.94,2410.87 1778.5,2409.5C 1775.95,2401.37 1772.45,2393.7 1768,2386.5C 1766.1,2383.12 1765.27,2379.46 1765.5,2375.5C 1763.41,2375.44 1761.91,2374.44 1761,2372.5C 1760.61,2369.37 1759.77,2366.37 1758.5,2363.5C 1755.33,2356.91 1752,2350.41 1748.5,2344C 1749.27,2341.05 1748.1,2338.88 1745,2337.5C 1743.65,2330.13 1740.65,2323.46 1736,2317.5C 1734.59,2310.67 1731.75,2304.5 1727.5,2299C 1727.96,2298.59 1728.29,2298.09 1728.5,2297.5C 1723.27,2288.63 1719.1,2279.3 1716,2269.5C 1713.17,2267.16 1712,2264.16 1712.5,2260.5C 1711.5,2260.5 1710.5,2260.5 1709.5,2260.5C 1709.66,2258.8 1709.49,2257.13 1709,2255.5C 1704.79,2246.73 1700.46,2238.07 1696,2229.5C 1694.44,2221.47 1691.44,2214.47 1687,2208.5C 1685.4,2201.67 1683.23,2195 1680.5,2188.5C 1681.95,2186.39 1681.45,2184.73 1679,2183.5C 1677.13,2175.98 1674.8,2168.65 1672,2161.5C 1671.21,2157.11 1670.38,2152.78 1669.5,2148.5C 1670.83,2147.5 1670.83,2146.5 1669.5,2145.5C 1669.28,2143.21 1668.61,2141.05 1667.5,2139C 1667.64,2138.23 1667.98,2137.56 1668.5,2137C 1667.11,2133.55 1665.77,2130.05 1664.5,2126.5C 1665.8,2123.68 1665.47,2121.01 1663.5,2118.5C 1664.93,2115.74 1664.6,2112.9 1662.5,2110C 1663.52,2107.23 1663.52,2104.39 1662.5,2101.5C 1663.94,2102.51 1665.27,2102.18 1666.5,2100.5C 1665.36,2099.57 1665.36,2098.74 1666.5,2098C 1664.88,2097.15 1664.54,2096.15 1665.5,2095C 1664.83,2094.33 1664.17,2093.67 1663.5,2093C 1664.03,2089.28 1664.36,2085.61 1664.5,2082C 1664.39,2080.32 1663.73,2079.15 1662.5,2078.5C 1661.49,2075.79 1661.83,2073.12 1663.5,2070.5C 1661.4,2067.32 1661.4,2063.99 1663.5,2060.5C 1662.69,2058.21 1662.36,2056.04 1662.5,2054C 1664.69,2051.49 1665.03,2048.66 1663.5,2045.5C 1663.76,2043.05 1664.43,2040.72 1665.5,2038.5C 1665.21,2033.86 1665.21,2029.36 1665.5,2025C 1666.26,2021.14 1667.59,2017.47 1669.5,2014C 1668.9,2012.94 1668.57,2011.77 1668.5,2010.5C 1670.08,2000.54 1673.08,1991.04 1677.5,1982C 1676.54,1979.88 1676.37,1977.71 1677,1975.5C 1679,1971.5 1681,1967.5 1683,1963.5C 1683.71,1961.1 1683.54,1958.77 1682.5,1956.5C 1688.59,1943.32 1695.42,1930.66 1703,1918.5C 1705.68,1909.1 1709.85,1900.43 1715.5,1892.5C 1717.74,1891.87 1719.4,1890.53 1720.5,1888.5C 1725.66,1878.84 1731.33,1869.51 1737.5,1860.5C 1740.25,1858.38 1743.08,1856.38 1746,1854.5C 1748.54,1849.25 1751.71,1844.42 1755.5,1840C 1757.26,1839.8 1758.92,1839.3 1760.5,1838.5C 1763.11,1832.89 1767.11,1828.55 1772.5,1825.5C 1774.31,1822.53 1776.31,1819.69 1778.5,1817C 1780.17,1816.67 1781.83,1816.33 1783.5,1816C 1787.74,1810.26 1792.74,1805.43 1798.5,1801.5C 1805.63,1796.76 1812.96,1792.26 1820.5,1788C 1822.21,1784.84 1824.88,1783.18 1828.5,1783C 1830.67,1781.5 1832.5,1779.67 1834,1777.5C 1834.41,1777.96 1834.91,1778.29 1835.5,1778.5C 1838.45,1777.22 1840.78,1775.22 1842.5,1772.5C 1843.09,1772.71 1843.59,1773.04 1844,1773.5C 1846.54,1771.65 1849.38,1770.48 1852.5,1770C 1854.96,1766.94 1857.96,1764.61 1861.5,1763C 1876.21,1756.77 1891.04,1750.93 1906,1745.5C 1907.11,1745.59 1908.11,1745.92 1909,1746.5C 1909.5,1745.33 1910.33,1744.5 1911.5,1744C 1914.79,1743.12 1918.12,1742.45 1921.5,1742C 1922.33,1741.17 1923.17,1740.33 1924,1739.5C 1925.94,1740.81 1927.78,1740.81 1929.5,1739.5C 1930.81,1739.82 1931.65,1740.49 1932,1741.5C 1933.5,1741 1935,1740.5 1936.5,1740C 1935.3,1739.35 1935.3,1738.85 1936.5,1738.5C 1938.09,1738.42 1939.76,1738.75 1941.5,1739.5C 1946.87,1736.8 1952.21,1736.14 1957.5,1737.5C 1957.09,1736.22 1957.75,1735.22 1959.5,1734.5C 1964.99,1732.27 1970.66,1731.61 1976.5,1732.5C 1979.66,1729.94 1982.83,1729.94 1986,1732.5C 1986.67,1731.17 1987.67,1730.17 1989,1729.5C 1991.44,1730.66 1993.94,1730.66 1996.5,1729.5C 1999.85,1731.5 2003.02,1731.5 2006,1729.5C 2009.38,1731.35 2012.55,1731.35 2015.5,1729.5C 2017.43,1730.37 2019.43,1731.03 2021.5,1731.5C 2024.97,1729.83 2028.13,1730.17 2031,1732.5C 2033,1731.83 2035,1731.17 2037,1730.5C 2040.14,1733.2 2043.31,1733.53 2046.5,1731.5C 2050.39,1734.19 2054.56,1734.85 2059,1733.5C 2063.51,1735.76 2068.34,1736.92 2073.5,1737C 2076.53,1737.78 2079.36,1738.95 2082,1740.5C 2088.93,1739.2 2095.1,1740.86 2100.5,1745.5C 2108.52,1744.73 2115.68,1747.07 2122,1752.5C 2125.43,1750.99 2128.43,1751.65 2131,1754.5C 2131.33,1754.17 2131.67,1753.83 2132,1753.5C 2159.23,1768.88 2185.39,1784.04 2210.5,1799C 2214.25,1801.08 2216.92,1804.08 2218.5,1808C 2224.05,1811.36 2229.55,1814.86 2235,1818.5C 2236.37,1819.99 2236.53,1821.49 2235.5,1823C 2239.64,1825.64 2243.64,1828.47 2247.5,1831.5C 2248.47,1833.4 2248.8,1835.4 2248.5,1837.5C 2253.65,1839.24 2257.32,1842.57 2259.5,1847.5C 2264.15,1849.8 2267.15,1853.47 2268.5,1858.5C 2269.83,1859.5 2271.17,1860.5 2272.5,1861.5C 2274.41,1865.58 2276.91,1869.24 2280,1872.5C 2281.01,1874.02 2281.51,1875.69 2281.5,1877.5C 2282.68,1877.28 2283.68,1877.61 2284.5,1878.5C 2285.13,1880.26 2286.13,1881.76 2287.5,1883C 2287.17,1883.33 2286.83,1883.67 2286.5,1884C 2289.88,1888.03 2293.04,1892.2 2296,1896.5C 2295.94,1900.44 2297.6,1903.44 2301,1905.5C 2301.71,1908.59 2302.71,1911.59 2304,1914.5C 2308.17,1922 2312.33,1929.5 2316.5,1937C 2316.04,1937.41 2315.71,1937.91 2315.5,1938.5C 2318.57,1940.62 2319.23,1943.28 2317.5,1946.5C 2320.64,1947.08 2322.14,1949.08 2322,1952.5C 2323.17,1953.67 2324.33,1954.83 2325.5,1956C 2324.48,1957.05 2324.32,1958.22 2325,1959.5C 2326.85,1964.03 2329.35,1968.2 2332.5,1972C 2332.04,1972.41 2331.71,1972.91 2331.5,1973.5C 2336.45,1981.68 2340.45,1990.35 2343.5,1999.5C 2343.39,2000.44 2343.06,2001.28 2342.5,2002C 2345.88,2003.38 2347.72,2005.88 2348,2009.5C 2350.86,2010.86 2351.69,2012.86 2350.5,2015.5C 2360.28,2034.43 2369.12,2054.09 2377,2074.5C 2379.68,2078 2381.84,2081.84 2383.5,2086C 2383.36,2086.77 2383.02,2087.44 2382.5,2088C 2383.42,2088.37 2384.25,2088.87 2385,2089.5C 2387.08,2094.83 2389.58,2100 2392.5,2105C 2391.48,2106.05 2391.32,2107.22 2392,2108.5C 2395.75,2113.33 2398.42,2118.67 2400,2124.5C 2401.71,2127.97 2403.71,2131.31 2406,2134.5C 2407.74,2137.91 2408.74,2141.58 2409,2145.5C 2412.82,2149.01 2414.65,2153.18 2414.5,2158C 2418.3,2164.42 2421.96,2170.92 2425.5,2177.5C 2425.17,2178.17 2424.83,2178.83 2424.5,2179.5C 2427.95,2185.03 2431.12,2190.7 2434,2196.5C 2436.37,2202.07 2438.87,2207.57 2441.5,2213C 2441.04,2213.41 2440.71,2213.91 2440.5,2214.5C 2443.35,2219.04 2446.02,2223.7 2448.5,2228.5C 2448.29,2229.09 2447.96,2229.59 2447.5,2230C 2449.81,2234.27 2452.47,2238.27 2455.5,2242C 2455.06,2244.4 2455.73,2246.73 2457.5,2249C 2457.17,2249.33 2456.83,2249.67 2456.5,2250C 2459.67,2252.83 2461.51,2256.33 2462,2260.5C 2463.45,2263.91 2465.29,2267.08 2467.5,2270C 2466.47,2271.51 2466.63,2273.01 2468,2274.5C 2470.93,2275.78 2471.77,2277.78 2470.5,2280.5C 2475.58,2289.37 2479.91,2298.71 2483.5,2308.5C 2484.24,2309.29 2485.08,2309.95 2486,2310.5C 2487.28,2316.39 2489.62,2321.73 2493,2326.5C 2494.8,2330.32 2496.13,2334.32 2497,2338.5C 2498.82,2341.6 2500.82,2344.6 2503,2347.5C 2504.67,2352.08 2506.17,2356.42 2507.5,2360.5 Z M 2195.5,2255.5 C 2195.5,2256.83 2196.17,2257.5 2197.5,2257.5C 2197.77,2258.55 2197.94,2259.89 2198,2261.5C 2200,2264.83 2202,2268.17 2204,2271.5C 2204.79,2277.2 2207.12,2282.2 2211,2286.5C 2212,2290.17 2213,2293.83 2214,2297.5C 2220.33,2310.85 2226.83,2324.02 2233.5,2337C 2233.17,2337.33 2232.83,2337.67 2232.5,2338C 2233.62,2340.12 2235.12,2341.96 2237,2343.5C 2237.72,2345.11 2237.55,2346.61 2236.5,2348C 2238.6,2350.9 2240.76,2353.73 2243,2356.5C 2243.12,2359.93 2244.28,2362.93 2246.5,2365.5C 2246.17,2366.17 2245.83,2366.83 2245.5,2367.5C 2248.7,2371.9 2251.36,2376.56 2253.5,2381.5C 2252.19,2382.89 2252.52,2383.89 2254.5,2384.5C 2256.5,2389.2 2258.66,2394.2 2261,2399.5C 2263.11,2400.04 2263.61,2401.04 2262.5,2402.5C 2265.55,2409.48 2268.89,2416.15 2272.5,2422.5C 2271.17,2423.5 2271.17,2424.5 2272.5,2425.5C 2273.93,2426.83 2275.27,2428.33 2276.5,2430C 2277.62,2437.95 2280.95,2445.29 2286.5,2452C 2286.36,2452.77 2286.02,2453.44 2285.5,2454C 2288.36,2460 2291.36,2465.83 2294.5,2471.5C 2299.71,2484.71 2305.38,2497.71 2311.5,2510.5C 2312.12,2512.23 2313.12,2513.73 2314.5,2515C 2313.55,2515.72 2313.38,2516.55 2314,2517.5C 2315.33,2518.83 2316.67,2520.17 2318,2521.5C 2320.81,2530.44 2324.15,2539.11 2328,2547.5C 2329.95,2551.71 2332.45,2555.54 2335.5,2559C 2335.26,2564.12 2337.1,2568.62 2341,2572.5C 2342.05,2577.9 2344.21,2582.73 2347.5,2587C 2347.17,2587.33 2346.83,2587.67 2346.5,2588C 2347.82,2590.32 2349.49,2592.32 2351.5,2594C 2350.34,2596.72 2351.01,2599.05 2353.5,2601C 2353.17,2601.33 2352.83,2601.67 2352.5,2602C 2360.38,2617.26 2367.55,2632.76 2374,2648.5C 2377.22,2656.44 2381.05,2663.94 2385.5,2671C 2385.17,2671.33 2384.83,2671.67 2384.5,2672C 2389.31,2680.12 2393.15,2688.62 2396,2697.5C 2398.95,2699.04 2399.78,2701.21 2398.5,2704C 2399.17,2706 2400.5,2707.33 2402.5,2708C 2402.04,2708.41 2401.71,2708.91 2401.5,2709.5C 2405.65,2714.38 2408.15,2720.05 2409,2726.5C 2412.44,2732.09 2415.61,2737.75 2418.5,2743.5C 2417.75,2746.32 2418.92,2748.32 2422,2749.5C 2422.03,2753.04 2423.19,2756.04 2425.5,2758.5C 2425.29,2759.09 2424.96,2759.59 2424.5,2760C 2426.45,2763.96 2428.61,2767.79 2431,2771.5C 2430.95,2774.61 2432.11,2777.11 2434.5,2779C 2434.04,2779.41 2433.71,2779.91 2433.5,2780.5C 2434.47,2782.64 2435.97,2784.31 2438,2785.5C 2440.14,2791.05 2442.14,2796.72 2444,2802.5C 2444.62,2804.75 2445.96,2806.42 2448,2807.5C 2448.68,2812.2 2446.85,2813.87 2442.5,2812.5C 2439.17,2813.83 2435.83,2815.17 2432.5,2816.5C 2429.56,2815.21 2427.06,2815.87 2425,2818.5C 2422.15,2815.99 2419.32,2815.99 2416.5,2818.5C 2413.17,2817.83 2410,2817.83 2407,2818.5C 2405.74,2818.76 2404.74,2819.43 2404,2820.5C 2400.05,2819.49 2395.88,2819.16 2391.5,2819.5C 2389.81,2819.76 2388.31,2820.43 2387,2821.5C 2385.43,2820.64 2383.76,2819.98 2382,2819.5C 2376.83,2819.63 2371.67,2819.96 2366.5,2820.5C 2363.17,2817.83 2359.83,2817.83 2356.5,2820.5C 2352.76,2816.86 2348.76,2815.86 2344.5,2817.5C 2340.14,2814.54 2335.48,2813.87 2330.5,2815.5C 2327.86,2814.03 2325.36,2812.36 2323,2810.5C 2320.77,2810.37 2318.43,2810.71 2316,2811.5C 2307.89,2806.35 2299.06,2803.19 2289.5,2802C 2271.3,2791.76 2253.63,2781.43 2236.5,2771C 2232.35,2764.4 2226.68,2759.4 2219.5,2756C 2218.54,2754.58 2217.71,2753.08 2217,2751.5C 2213.67,2748.83 2210.33,2746.17 2207,2743.5C 2206.53,2741.75 2205.86,2740.09 2205,2738.5C 2202.26,2736.1 2199.92,2733.43 2198,2730.5C 2195.71,2727.54 2192.88,2725.37 2189.5,2724C 2190.82,2719.92 2189.32,2717.09 2185,2715.5C 2185.02,2711.35 2183.18,2708.35 2179.5,2706.5C 2178.29,2705.28 2178.29,2704.11 2179.5,2703C 2178.42,2702.04 2177.25,2701.21 2176,2700.5C 2172.98,2693.44 2169.82,2686.44 2166.5,2679.5C 2163.83,2678.5 2163.16,2676.83 2164.5,2674.5C 2162.57,2669.71 2159.9,2665.38 2156.5,2661.5C 2155.66,2653.97 2152.66,2647.14 2147.5,2641C 2147.2,2635.9 2145.04,2631.4 2141,2627.5C 2140.32,2626.22 2140.48,2625.05 2141.5,2624C 2136.42,2614.43 2131.92,2604.59 2128,2594.5C 2124.8,2590.43 2122.8,2585.76 2122,2580.5C 2118.55,2574.59 2115.38,2568.59 2112.5,2562.5C 2113.83,2561.5 2113.83,2560.5 2112.5,2559.5C 2111.54,2558.04 2110.38,2556.71 2109,2555.5C 2106.89,2549.81 2104.39,2544.31 2101.5,2539C 2101.83,2538.67 2102.17,2538.33 2102.5,2538C 2100.46,2533.5 2098.13,2529.16 2095.5,2525C 2095.83,2524.67 2096.17,2524.33 2096.5,2524C 2093,2517.83 2089.5,2511.67 2086,2505.5C 2079.53,2492.22 2073.87,2478.56 2069,2464.5C 2062.3,2453.09 2056.63,2441.09 2052,2428.5C 2051.25,2427.87 2050.42,2427.37 2049.5,2427C 2050.02,2426.44 2050.36,2425.77 2050.5,2425C 2047.17,2418.02 2043.84,2411.02 2040.5,2404C 2040.83,2403.67 2041.17,2403.33 2041.5,2403C 2038.47,2399.23 2035.8,2395.23 2033.5,2391C 2034.52,2389.95 2034.68,2388.78 2034,2387.5C 2031.93,2383.7 2029.6,2380.03 2027,2376.5C 2026.93,2373.95 2026.1,2371.79 2024.5,2370C 2024.83,2369.67 2025.17,2369.33 2025.5,2369C 2022.18,2364.83 2019.51,2360.33 2017.5,2355.5C 2017.83,2354.83 2018.17,2354.17 2018.5,2353.5C 2016.64,2349.09 2014.14,2345.09 2011,2341.5C 2010.13,2335.72 2007.8,2330.72 2004,2326.5C 2002.81,2318.65 1999.65,2311.32 1994.5,2304.5C 1994.71,2303.91 1995.04,2303.41 1995.5,2303C 1993.83,2298.35 1991.17,2294.35 1987.5,2291C 1988.26,2288.15 1987.26,2285.82 1984.5,2284C 1984.83,2283.67 1985.17,2283.33 1985.5,2283C 1983.9,2278.51 1981.73,2274.35 1979,2270.5C 1978.67,2268.83 1978.33,2267.17 1978,2265.5C 1973.23,2259.35 1970.23,2252.35 1969,2244.5C 1966.64,2240.72 1964.14,2237.05 1961.5,2233.5C 1961.83,2232.83 1962.17,2232.17 1962.5,2231.5C 1957.57,2222.42 1953.23,2213.08 1949.5,2203.5C 1949.57,2201.97 1948.91,2200.97 1947.5,2200.5C 1945.65,2196.69 1944.15,2192.35 1943,2187.5C 1939.32,2183.14 1936.99,2178.14 1936,2172.5C 1934.09,2169.03 1931.93,2165.7 1929.5,2162.5C 1929.83,2161.83 1930.17,2161.17 1930.5,2160.5C 1927.71,2155.92 1925.05,2151.26 1922.5,2146.5C 1923.19,2144.28 1922.19,2142.78 1919.5,2142C 1920.55,2140.61 1920.72,2139.11 1920,2137.5C 1918,2134.18 1916,2130.84 1914,2127.5C 1909.61,2115.29 1905.78,2103.13 1902.5,2091C 1903.92,2087.84 1903.59,2084.84 1901.5,2082C 1902.17,2081 1902.83,2080 1903.5,2079C 1902.29,2077.89 1902.29,2076.72 1903.5,2075.5C 1902.83,2074.83 1902.17,2074.17 1901.5,2073.5C 1903.36,2070.41 1903.69,2067.24 1902.5,2064C 1903.13,2062.11 1904.13,2060.44 1905.5,2059C 1905.94,2056.6 1905.27,2054.27 1903.5,2052C 1906.39,2047.71 1908.89,2043.21 1911,2038.5C 1911.69,2036.43 1911.52,2034.43 1910.5,2032.5C 1913.25,2028.4 1915.41,2024.4 1917,2020.5C 1919.99,2017.35 1923.16,2014.35 1926.5,2011.5C 1928.27,2008.96 1929.77,2006.3 1931,2003.5C 1932.45,2001.54 1934.28,2000.2 1936.5,1999.5C 1937.79,1999.74 1938.79,1999.4 1939.5,1998.5C 1941.33,1996.49 1943,1994.33 1944.5,1992C 1952.42,1987.21 1960.75,1983.21 1969.5,1980C 1973.09,1977.46 1976.93,1975.3 1981,1973.5C 1983.59,1973.24 1986.26,1973.24 1989,1973.5C 1990.61,1972.9 1991.94,1971.9 1993,1970.5C 1995.38,1971.87 1997.55,1971.53 1999.5,1969.5C 2001.43,1970.37 2003.43,1971.03 2005.5,1971.5C 2008.09,1970.75 2010.75,1970.75 2013.5,1971.5C 2015.38,1971.28 2017.05,1970.62 2018.5,1969.5C 2019.35,1970.52 2020.35,1971.36 2021.5,1972C 2024.83,1972.33 2028.17,1972.67 2031.5,1973C 2039.29,1977.59 2047.29,1980.92 2055.5,1983C 2060.6,1989.27 2066.93,1993.77 2074.5,1996.5C 2075.53,2001.05 2078.03,2004.72 2082,2007.5C 2084.42,2013.05 2087.58,2018.21 2091.5,2023C 2091.17,2023.33 2090.83,2023.67 2090.5,2024C 2092.59,2026.78 2093.76,2029.95 2094,2033.5C 2095,2035.17 2096.33,2036.5 2098,2037.5C 2100.53,2045.69 2103.53,2053.69 2107,2061.5C 2109.38,2065.71 2111.88,2069.88 2114.5,2074C 2114.04,2074.41 2113.71,2074.91 2113.5,2075.5C 2119.33,2085 2124,2095.17 2127.5,2106C 2128.27,2107.22 2129.27,2108.22 2130.5,2109C 2130.17,2109.33 2129.83,2109.67 2129.5,2110C 2130.83,2112.33 2132.17,2114.67 2133.5,2117C 2133.17,2117.33 2132.83,2117.67 2132.5,2118C 2134.17,2120.33 2135.83,2122.67 2137.5,2125C 2137.17,2125.33 2136.83,2125.67 2136.5,2126C 2138.89,2130.72 2141.06,2135.55 2143,2140.5C 2145.89,2142.28 2147.06,2144.61 2146.5,2147.5C 2151.8,2156.74 2156.13,2166.4 2159.5,2176.5C 2160.67,2178.17 2162,2179.67 2163.5,2181C 2163.36,2181.77 2163.02,2182.44 2162.5,2183C 2166.97,2190.44 2170.47,2198.27 2173,2206.5C 2174.53,2210.39 2176.69,2213.89 2179.5,2217C 2178.63,2219.32 2179.3,2221.32 2181.5,2223C 2181.17,2223.33 2180.83,2223.67 2180.5,2224C 2181.62,2226.12 2183.12,2227.96 2185,2229.5C 2187.72,2238.59 2191.22,2247.25 2195.5,2255.5 Z"/></g>
<g><path style="opacity:0.022" fill="#cdcdcd" d="M 1959.5,1734.5 C 1957.75,1735.22 1957.09,1736.22 1957.5,1737.5C 1952.21,1736.14 1946.87,1736.8 1941.5,1739.5C 1939.76,1738.75 1938.09,1738.42 1936.5,1738.5C 1935.3,1738.85 1935.3,1739.35 1936.5,1740C 1935,1740.5 1933.5,1741 1932,1741.5C 1931.65,1740.49 1930.81,1739.82 1929.5,1739.5C 1932.02,1738.81 1934.52,1737.81 1937,1736.5C 1938.12,1736.67 1939.28,1737 1940.5,1737.5C 1942.45,1735.47 1944.62,1735.13 1947,1736.5C 1948.19,1735.57 1949.53,1734.9 1951,1734.5C 1953.82,1734.01 1956.65,1734.01 1959.5,1734.5 Z"/></g>
<g><path style="opacity:0.012" fill="#5a5a5a" d="M 797.5,1751.5 C 798.71,1751.93 799.71,1752.6 800.5,1753.5C 798.821,1753.71 797.821,1753.05 797.5,1751.5 Z"/></g>
<g><path style="opacity:0.027" fill="#d4d4d4" d="M 48.5,1749.5 C 49.4959,1749.41 50.3292,1749.75 51,1750.5C 51.2453,1752.66 52.2453,1754.33 54,1755.5C 54.8837,1757.64 54.3837,1759.31 52.5,1760.5C 50.1505,1758.31 48.1505,1755.81 46.5,1753C 47.305,1751.89 47.9717,1750.72 48.5,1749.5 Z"/></g>
<g><path style="opacity:0.01" fill="#d6d6d6" d="M 48.5,1766.5 C 49.5,1766.5 50.5,1766.5 51.5,1766.5C 51.5,1767.83 51.5,1769.17 51.5,1770.5C 50.5,1770.5 49.5,1770.5 48.5,1770.5C 48.5,1769.17 48.5,1767.83 48.5,1766.5 Z"/></g>
<g><path style="opacity:0.012" fill="#cccccc" d="M 39.5,1775.5 C 43.4377,1775.84 44.4377,1777.84 42.5,1781.5C 40.3754,1784.27 38.7087,1784.1 37.5,1781C 38.8561,1779.43 39.5228,1777.6 39.5,1775.5 Z"/></g>
<g><path style="opacity:0.01" fill="#ededed" d="M 29.5,1788.5 C 30.8333,1788.5 32.1667,1788.5 33.5,1788.5C 32.9556,1790.58 32.1223,1792.58 31,1794.5C 29.9887,1795.34 28.8221,1795.67 27.5,1795.5C 27.767,1793.03 28.4336,1790.7 29.5,1788.5 Z"/></g>
<g><path style="opacity:0.007" fill="#cecece" d="M 19.5,1800.5 C 21.1033,1800.31 22.4366,1800.81 23.5,1802C 20.5912,1805.62 17.2579,1808.28 13.5,1810C 12.4258,1809.26 11.7591,1808.26 11.5,1807C 14.0216,1804.58 16.6883,1802.42 19.5,1800.5 Z"/></g>
<g><path style="opacity:0.016" fill="#b6b6b6" d="M 39.5,1829.5 C 40.5,1829.5 41.5,1829.5 42.5,1829.5C 42.3352,1833.86 41.0019,1834.36 38.5,1831C 39.056,1830.62 39.3893,1830.12 39.5,1829.5 Z"/></g>
<g><path style="opacity:0.008" fill="#e2e2e2" d="M 4.5,1838.5 C 6.3588,1838.46 7.69213,1839.29 8.5,1841C 6.43952,1843.09 4.77285,1842.76 3.5,1840C 4.05596,1839.62 4.38929,1839.12 4.5,1838.5 Z"/></g>
<g><path style="opacity:0.009" fill="#bcbcbc" d="M 6.5,1845.5 C 9.68535,1845.72 10.6853,1847.22 9.5,1850C 6.04135,1850.15 5.04135,1848.65 6.5,1845.5 Z"/></g>
<g><path style="opacity:0.014" fill="#f6f6f6" d="M 32.5,1847.5 C 35.0838,1848.05 36.0838,1849.71 35.5,1852.5C 31.7162,1852.47 30.7162,1850.81 32.5,1847.5 Z"/></g>
<g><path style="opacity:0.008" fill="#5e5e5e" d="M 40.5,1848.5 C 39.5,1848.5 38.5,1848.5 37.5,1848.5C 38.5,1845.83 39.5,1845.83 40.5,1848.5 Z"/></g>
<g><path style="opacity:0.01" fill="#eeeeee" d="M 37.5,1848.5 C 38.5,1848.5 39.5,1848.5 40.5,1848.5C 41.404,1849.21 41.7373,1850.21 41.5,1851.5C 39.0274,1851.91 37.6941,1850.91 37.5,1848.5 Z"/></g>
<g><path style="opacity:0.008" fill="#d5d5d5" d="M 27.5,1853.5 C 29.3588,1853.46 30.6921,1854.29 31.5,1856C 29.4395,1858.09 27.7729,1857.76 26.5,1855C 27.056,1854.62 27.3893,1854.12 27.5,1853.5 Z"/></g>
<g><path style="opacity:0.008" fill="#5c5c5c" d="M 1523.5,1872.5 C 1523.57,1874.03 1522.91,1875.03 1521.5,1875.5C 1521.43,1873.97 1522.09,1872.97 1523.5,1872.5 Z"/></g>
<g><path style="opacity:0.006" fill="#cccccc" d="M 33.5,1884.5 C 35.2517,1884.42 36.2517,1885.25 36.5,1887C 35.6847,1890.48 34.0181,1893.48 31.5,1896C 29.597,1896.77 27.9304,1896.44 26.5,1895C 29.4359,1891.9 31.7692,1888.4 33.5,1884.5 Z"/></g>
<g><path style="opacity:0.008" fill="#4b4b4b" d="M 1411.5,1948.5 C 1412.21,1947.6 1413.21,1947.26 1414.5,1947.5C 1413.89,1949.48 1412.89,1949.81 1411.5,1948.5 Z"/></g>
<g><path style="opacity:0.012" fill="#545454" d="M 857.5,1990.5 C 858.5,1989.17 859.5,1989.17 860.5,1990.5C 859.5,1991.83 858.5,1991.83 857.5,1990.5 Z"/></g>
<g><path style="opacity:0.01" fill="#656565" d="M 1939.5,1998.5 C 1938.79,1999.4 1937.79,1999.74 1936.5,1999.5C 1937.11,1997.52 1938.11,1997.19 1939.5,1998.5 Z"/></g>
<g><path style="opacity:0.016" fill="#949494" d="M 504.5,2005.5 C 502.236,2006.22 499.903,2006.55 497.5,2006.5C 499.091,2005.78 500.591,2004.78 502,2003.5C 502.995,2004.07 503.828,2004.73 504.5,2005.5 Z"/></g>
<g><path style="opacity:0.012" fill="#676767" d="M 427.5,2008.5 C 429.309,2007.71 431.309,2007.71 433.5,2008.5C 431.611,2009.74 429.611,2009.74 427.5,2008.5 Z"/></g>
<g><path style="opacity:0.014" fill="#cfcfcf" d="M 1662.5,2078.5 C 1663.73,2079.15 1664.39,2080.32 1664.5,2082C 1664.36,2085.61 1664.03,2089.28 1663.5,2093C 1664.17,2093.67 1664.83,2094.33 1665.5,2095C 1664.54,2096.15 1664.88,2097.15 1666.5,2098C 1665.36,2098.74 1665.36,2099.57 1666.5,2100.5C 1665.27,2102.18 1663.94,2102.51 1662.5,2101.5C 1662.07,2093.85 1662.07,2086.19 1662.5,2078.5 Z"/></g>
<g><path style="opacity:0.008" fill="#4b4b4b" d="M 1669.5,2145.5 C 1670.83,2146.5 1670.83,2147.5 1669.5,2148.5C 1668.17,2147.5 1668.17,2146.5 1669.5,2145.5 Z"/></g>
<g><path style="opacity:0.004" fill="#1f1f1f" d="M 1947.5,2200.5 C 1948.91,2200.97 1949.57,2201.97 1949.5,2203.5C 1948.09,2203.03 1947.43,2202.03 1947.5,2200.5 Z"/></g>
<g><path style="opacity:0.004" fill="#000000" d="M 2195.5,2255.5 C 2196.5,2255.83 2197.17,2256.5 2197.5,2257.5C 2196.17,2257.5 2195.5,2256.83 2195.5,2255.5 Z"/></g>
<g><path style="opacity:0.016" fill="#868686" d="M 2507.5,2360.5 C 2509.01,2362.18 2510.01,2364.18 2510.5,2366.5C 2507.48,2365.23 2506.48,2363.23 2507.5,2360.5 Z"/></g>
<g><path style="opacity:0.012" fill="#626262" d="M 2253.5,2381.5 C 2254.4,2382.21 2254.74,2383.21 2254.5,2384.5C 2252.52,2383.89 2252.19,2382.89 2253.5,2381.5 Z"/></g>
<g><path style="opacity:0.008" fill="#535353" d="M 2272.5,2422.5 C 2273.83,2423.5 2273.83,2424.5 2272.5,2425.5C 2271.17,2424.5 2271.17,2423.5 2272.5,2422.5 Z"/></g>
<g><path style="opacity:0.017" fill="#d7d7d7" d="M 2294.5,2471.5 C 2294.56,2470.96 2294.89,2470.62 2295.5,2470.5C 2297.24,2471.84 2298.91,2473.17 2300.5,2474.5C 2298.15,2475.77 2298.32,2477.11 2301,2478.5C 2303.45,2485.52 2306.12,2492.52 2309,2499.5C 2309.75,2500.13 2310.58,2500.63 2311.5,2501C 2310.12,2503.54 2310.79,2505.54 2313.5,2507C 2312.36,2507.74 2312.36,2508.57 2313.5,2509.5C 2313.04,2510.3 2312.38,2510.63 2311.5,2510.5C 2305.38,2497.71 2299.71,2484.71 2294.5,2471.5 Z"/></g>
<g><path style="opacity:0.008" fill="#4b4b4b" d="M 2112.5,2559.5 C 2113.83,2560.5 2113.83,2561.5 2112.5,2562.5C 2111.17,2561.5 2111.17,2560.5 2112.5,2559.5 Z"/></g>
<g><path style="opacity:0.056" fill="#afafaf" d="M 2715.5,2842.5 C 2715.95,2843.46 2716.62,2844.29 2717.5,2845C 2716.66,2846.01 2716.33,2847.18 2716.5,2848.5C 2711.69,2847.39 2711.36,2845.39 2715.5,2842.5 Z"/></g>
<g><path style="opacity:0.008" fill="#6d6d6d" d="M 2428.5,3058.5 C 2427.2,3059.12 2426.2,3059.12 2425.5,3058.5C 2426.5,3057.17 2427.5,3057.17 2428.5,3058.5 Z"/></g>
<g><path style="opacity:0.01" fill="#e3e3e3" d="M 2707.5,3129.5 C 2710.46,3130.14 2713.46,3130.64 2716.5,3131C 2719.35,3134.19 2718.52,3135.69 2714,3135.5C 2710.8,3134.82 2707.64,3133.99 2704.5,3133C 2704.04,3132.59 2703.71,3132.09 2703.5,3131.5C 2704.95,3130.83 2706.28,3130.16 2707.5,3129.5 Z"/></g>
<g><path style="opacity:0.008" fill="#eaeaea" d="M 2668.5,3142.5 C 2670.03,3141.08 2669.7,3140.41 2667.5,3140.5C 2668.25,3138.53 2669.42,3138.2 2671,3139.5C 2671.86,3142.54 2671.03,3143.54 2668.5,3142.5 Z"/></g>
<g><path style="opacity:0.008" fill="#505050" d="M 2667.5,3140.5 C 2669.7,3140.41 2670.03,3141.08 2668.5,3142.5C 2666.89,3141.99 2666.56,3141.33 2667.5,3140.5 Z"/></g>
<g><path style="opacity:0.01" fill="#d3d3d3" d="M 2651.5,3144.5 C 2652.76,3144.46 2653.76,3144.96 2654.5,3146C 2653.38,3147.89 2651.72,3148.73 2649.5,3148.5C 2649.53,3146.8 2650.19,3145.47 2651.5,3144.5 Z"/></g>
<g><path style="opacity:0.016" fill="#eaeaea" d="M 2671.5,3144.5 C 2673.1,3144.31 2674.44,3144.81 2675.5,3146C 2670.64,3150.92 2669.31,3150.42 2671.5,3144.5 Z"/></g>
<g><path style="opacity:0.15" fill="#e5e5e5" d="M 2556.5,3142.5 C 2559.3,3143.76 2562.14,3143.76 2565,3142.5C 2566.61,3142.77 2567.77,3143.6 2568.5,3145C 2562.36,3149.07 2555.69,3152.07 2548.5,3154C 2542.88,3154.75 2538.88,3152.42 2536.5,3147C 2538.15,3145.34 2540.15,3144.51 2542.5,3144.5C 2546.47,3145.19 2550.3,3145.19 2554,3144.5C 2554.99,3143.93 2555.83,3143.27 2556.5,3142.5 Z"/></g>
<g><path style="opacity:0.016" fill="#bebebe" d="M 2678.5,3146.5 C 2682.34,3147.57 2682.51,3149.23 2679,3151.5C 2678.17,3150.67 2677.33,3149.83 2676.5,3149C 2677.38,3148.29 2678.05,3147.46 2678.5,3146.5 Z"/></g>
<g><path style="opacity:0.007" fill="#b3b3b3" d="M 2589.5,3159.5 C 2591.56,3159.76 2592.9,3160.93 2593.5,3163C 2591.86,3164.95 2590.36,3164.78 2589,3162.5C 2588.53,3161.42 2588.7,3160.42 2589.5,3159.5 Z"/></g>
<g><path style="opacity:0.015" fill="#dedede" d="M 2603.5,3163.5 C 2607.36,3163.69 2609.02,3165.69 2608.5,3169.5C 2606.8,3169.03 2605.3,3169.03 2604,3169.5C 2598.37,3167.96 2598.2,3165.96 2603.5,3163.5 Z"/></g>
<g><path style="opacity:0.013" fill="#dcdcdc" d="M 2578.5,3161.5 C 2580.36,3161.46 2581.69,3162.29 2582.5,3164C 2580.79,3166.59 2578.96,3169.09 2577,3171.5C 2571.36,3169.89 2571.19,3167.89 2576.5,3165.5C 2577.18,3164.14 2577.85,3162.81 2578.5,3161.5 Z"/></g>
<g><path style="opacity:0.01" fill="#d7d7d7" d="M 2678.5,3169.5 C 2679.5,3169.5 2680.5,3169.5 2681.5,3169.5C 2681.5,3170.5 2681.5,3171.5 2681.5,3172.5C 2680.13,3172.66 2678.79,3172.49 2677.5,3172C 2678.25,3171.33 2678.59,3170.5 2678.5,3169.5 Z"/></g>
<g><path style="opacity:0.027" fill="#c5c5c5" d="M 2616.5,3169.5 C 2618.6,3169.2 2620.6,3169.53 2622.5,3170.5C 2623.95,3172.26 2623.62,3173.6 2621.5,3174.5C 2619.88,3173.85 2618.22,3173.35 2616.5,3173C 2615.32,3171.85 2615.32,3170.69 2616.5,3169.5 Z"/></g>
<g><path style="opacity:0.007" fill="#e7e7e7" d="M 2671.5,3173.5 C 2676.47,3173.58 2676.8,3174.92 2672.5,3177.5C 2671.57,3176.31 2671.24,3174.98 2671.5,3173.5 Z"/></g>
<g><path style="opacity:0.009" fill="#e3e3e3" d="M 2631.5,3174.5 C 2635.14,3175.15 2638.47,3176.65 2641.5,3179C 2642.34,3180.01 2642.67,3181.18 2642.5,3182.5C 2639.1,3181.63 2635.77,3180.46 2632.5,3179C 2630.45,3177.77 2630.12,3176.27 2631.5,3174.5 Z"/></g>
<g><path style="opacity:0.016" fill="#dedede" d="M 2217.5,3196.5 C 2222.63,3197.98 2222.8,3199.98 2218,3202.5C 2215.72,3202.32 2213.39,3202.32 2211,3202.5C 2208.13,3201.59 2207.96,3200.09 2210.5,3198C 2213.04,3197.81 2215.37,3197.31 2217.5,3196.5 Z"/></g>
<g><path style="opacity:0.011" fill="#eaeaea" d="M 2189.5,3200.5 C 2190.92,3200.71 2192.26,3201.21 2193.5,3202C 2193.27,3203.14 2192.94,3204.3 2192.5,3205.5C 2189.16,3204.89 2188.16,3203.22 2189.5,3200.5 Z"/></g>
<g><path style="opacity:0.004" fill="#000000" d="M 2154.5,3201.5 C 2154.5,3202.5 2154.5,3203.5 2154.5,3204.5C 2153,3204.01 2151.67,3203.34 2150.5,3202.5C 2151.96,3202.57 2153.29,3202.23 2154.5,3201.5 Z"/></g>
<g><path style="opacity:0.004" fill="#fefffe" d="M 2154.5,3201.5 C 2157.17,3202.5 2157.17,3203.5 2154.5,3204.5C 2154.5,3203.5 2154.5,3202.5 2154.5,3201.5 Z"/></g>
<g><path style="opacity:0.013" fill="#dadada" d="M 2420.5,3205.5 C 2421.83,3205.5 2423.17,3205.5 2424.5,3205.5C 2424.39,3207.78 2423.56,3209.78 2422,3211.5C 2418.16,3210.18 2417.66,3208.18 2420.5,3205.5 Z"/></g>
<g><path style="opacity:0.013" fill="#e3e3e3" d="M 2435.5,3209.5 C 2438.11,3209.28 2439.78,3210.44 2440.5,3213C 2437.76,3214.36 2435.43,3216.2 2433.5,3218.5C 2432.12,3218 2431.45,3217 2431.5,3215.5C 2432.77,3213.51 2434.1,3211.51 2435.5,3209.5 Z"/></g>
<g><path style="opacity:0.02" fill="#dbdbdb" d="M 2417.5,3210.5 C 2420.12,3212.48 2419.62,3213.81 2416,3214.5C 2415.5,3214.17 2415,3213.83 2414.5,3213.5C 2415.34,3212.27 2416.34,3211.27 2417.5,3210.5 Z"/></g>
<g><path style="opacity:0.234" fill="#ededed" d="M 2150.5,3202.5 C 2151.67,3203.34 2153,3204.01 2154.5,3204.5C 2152.4,3206.43 2150.9,3208.77 2150,3211.5C 2146.03,3214.3 2142.53,3217.64 2139.5,3221.5C 2131.86,3223.66 2124.19,3226 2116.5,3228.5C 2115.91,3228.29 2115.41,3227.96 2115,3227.5C 2112.01,3230.02 2109.18,3230.02 2106.5,3227.5C 2107.91,3223.95 2110.58,3222.12 2114.5,3222C 2118.56,3217.64 2123.56,3214.97 2129.5,3214C 2131.75,3210.28 2135.08,3208.61 2139.5,3209C 2143.03,3206.64 2146.7,3204.47 2150.5,3202.5 Z"/></g>
<g><path style="opacity:0.016" fill="#b3b3b3" d="M 2433.5,3232.5 C 2434.5,3232.5 2435.5,3232.5 2436.5,3232.5C 2436.83,3235.5 2435.5,3236.83 2432.5,3236.5C 2432.43,3235.04 2432.77,3233.71 2433.5,3232.5 Z"/></g>
<g><path style="opacity:0.016" fill="#f4f4f4" d="M 2422.5,3249.5 C 2424.44,3251.01 2424.94,3253.01 2424,3255.5C 2421.51,3256.95 2419.67,3256.28 2418.5,3253.5C 2419.55,3251.78 2420.88,3250.45 2422.5,3249.5 Z"/></g>
<g><path style="opacity:0.048" fill="#ebebeb" d="M 2164.5,3263.5 C 2159.17,3263.5 2153.83,3263.5 2148.5,3263.5C 2148.57,3261.69 2149.41,3260.36 2151,3259.5C 2155.6,3260.94 2160.1,3262.27 2164.5,3263.5 Z"/></g>
<g><path style="opacity:0.004" fill="#fefffe" d="M 2114.5,3263.5 C 2113.83,3262.17 2113.83,3262.17 2114.5,3263.5 Z"/></g>
</svg>
